<?xml version="1.0" encoding="UTF-8"?>
<svg id="_图层_1" data-name=" 图层 1" xmlns="http://www.w3.org/2000/svg" viewBox="0 0 128 128">
  <defs>
    <style>
      .cls-1 {
        fill: #5b9db2;
      }

      .cls-2 {
        fill: #fff;
      }

      .cls-3 {
        fill: #68c0db;
      }

      .cls-4 {
        fill: #5bc8ea;
      }

      .cls-5 {
        fill: #436b7a;
      }

      .cls-6 {
        fill: #474749;
      }
    </style>
  </defs>
  <path class="cls-2" d="m114.69,105.66c.45-.09.73-.36.81-.82,2.77-2.86,5.17-5.96,7.05-9.5,2.11-3.95,3.12-8.14,3.48-12.54.26.01.43-.06.49-.37.23-1.2.4-2.38.24-3.6.14-1.39.12-2.76,0-4.15.06-1.43.19-2.88-.55-4.22.26-.53-.08-.98-.19-1.47-.02-.39.24-.83-.15-1.17-.04-.17-.07-.33-.11-.49.09-.41.28-.83-.14-1.17-.04-.56-.07-1.13-.11-1.68.05-.25.15-.52-.14-.7-.04-.75.08-1.54-.12-2.25-.95-3.4-1.6-6.9-3.41-10.04-1.1-1.91-2.35-3.61-4.21-4.8-2.11-1.35-4.61-1.64-6.87-2.54-4.42-1.75-9.14-2.01-13.7-2.97-3.73-.78-7.56-1.07-11.35-1.58-.36-.3-.75-.23-1.14-.08-.98-.05-1.99,0-2.95-.17-2.37-.4-4.72-.27-7.09-.05-.2-.11-.37-.11-.46.13-1.41.14-2.83.18-4.25.26-1.92.11-3.85.27-5.74.52-3.32.45-6.59,1.33-9.87,2.07-1.91.44-3.87.63-5.71,1.4-.95.4-1.91.38-2.68-.44-.3-.31-.65-.2-1-.26-2.87-.44-5.05,1.09-7.26,2.51-1.91,1.22-3.54,2.84-5.84,3.48-1.45.4-2.84,1.08-4.17,1.79-3.41,1.82-6.6,3.97-9.52,6.56-1.93,1.72-3.72,3.54-5.21,5.62-3.22,4.48-5.31,9.5-6.46,14.88-.82,3.83-.79,7.75-.75,11.66.04,2.28.41,4.49.75,6.73-.3.33-.51.65.15.81.23,1.09.23,2.16-.26,3.19-.72.18-.33.73-.39,1.14-.32,1.22-.68,2.43-.95,3.65-.51,2.26-.75,4.61-1.49,6.79-.75,2.16-.95,4.11.32,6.08.63,1.39,2.63,2.36,4.02,1.94.75.02,1.55-.13,2.24.08,2.12.69,4.31.56,6.47.78,2.58.27,5.17.52,7.7,1.11,1.96.46,3.87,1.03,5.78,1.72,3.1,1.13,6.32,1.98,9.57,2.58,1.4.26,2.82.6,4.27.52.26.55.76.24,1.14.28,1.03.12,2.1-.15,3.1.21,2.56.08,5.12.27,7.7.2,2.56-.06,5.13.11,7.69-.13-.2.11-.12.25,0,.32.25.15.38-.13.57-.2,1.36-.15,2.74-.31,4.1-.46,1.36.2,2.74.06,4.11.07.33,0,.63-.01.78-.38,3.64-.14,7.28-.51,10.91-.32,2.61.13,5.23.12,7.83.05.28.2.53.14.73-.13,1.34-.43,2.56-.9,3.55-2.05,1.5-1.73,1.65-3.77,1.9-5.84.47-.55.97-1.07,1.66-1.39.25-.12.64-.21.59-.64,1.59-.96,3.21-1.87,4.75-2.9,1.6-1.08,3.21-2.16,4.68-3.42,1.26-1.07,2.54-2.09,3.82-3.13.6-.06.95-.41,1.11-.97l.14-.14h.01ZM63.94,1.56c-1.29-.28-2.61-.28-3.87-.02-2.29.48-4.42,1.34-6.05,3.14-.95,1.05-1.82,2.15-1.95,3.65-.04.1-.38.09-.11.3-.17.9-.31,1.81.02,2.7-.05.13-.04.24.09.31.21.46.39.94.65,1.37.46.78,1.09.88,1.89.38.58-.37.75-1.11.38-1.74-.37-.64-.56-1.29-.55-2.05.02-1.01.69-1.69.99-2.55.35-.05.57-.22.56-.61.07-.07.13-.14.2-.21.43-.04.67-.3.79-.69.12-.1.23-.24.36-.3,1.92-.89,3.93-1.23,6.04-1.03.46.05.82.2,1.22.42,1.27.68,1.87,1.83,2.37,3.07.13,1.1.26,2.2,0,3.3-.2,1.21-1.16,1.89-1.99,2.58-1.29,1.07-2.46,2.22-3.46,3.55-1.29,1.71-1.61,3.64-1.39,5.71.02.22.14.39.29.54.5.52,1.63.63,2.24.2.59-.42.68-1.23.24-2.01-.19-.34-.31-.68-.14-1.1.39-1.01.97-1.91,1.69-2.73.64-.24,1.01-.77,1.37-1.3.62-.57,1.27-1.1,1.86-1.69.74-.72,1.36-1.53,1.67-2.55.28.02.36-.17.39-.39.1-.62.25-1.23.17-1.87.06-.78-.07-1.54-.22-2.29-.2-.97-.68-1.84-1.13-2.72-.83-1.63-2.21-2.49-3.82-3.12-.17-.35-.5-.27-.79-.27h.02Zm-2.41,28.42c1.25,0,2.11-.67,2.4-1.83.18-.73-.2-1.3-.5-1.89-.42-.85-.79-.98-2.16-.69-.69.15-1.16.55-1.14,1.34,0,.57,0,1.16,0,1.73.02,1.12.27,1.35,1.4,1.35Z"/>
  <path class="cls-6" d="m43.84,126.65c-1.46.08-2.87-.26-4.27-.52-3.26-.6-6.47-1.46-9.57-2.58-1.91-.7-3.82-1.27-5.78-1.72-2.54-.59-5.12-.84-7.7-1.11-2.16-.23-4.36-.09-6.47-.78-.69-.23-1.49-.07-2.24-.08-1.4-.53-2.78-1.08-4.02-1.94-1.27-1.97-1.05-3.92-.32-6.08.75-2.18.98-4.53,1.49-6.79.27-1.23.63-2.44.95-3.65.65-.2.41-.7.39-1.14.49-1.03.49-2.1.26-3.18.08-.3.2-.59-.15-.81-.33-2.23-.71-4.46-.75-6.73-.06-3.91-.07-7.83.75-11.66,1.15-5.37,3.24-10.4,6.46-14.88,1.49-2.07,3.28-3.9,5.21-5.62,2.92-2.6,6.1-4.74,9.52-6.56,1.34-.71,2.73-1.39,4.17-1.79,2.29-.64,3.93-2.26,5.84-3.48,2.22-1.42,4.4-2.95,7.26-2.51.34.05.7-.05,1,.26.77.82,1.74.84,2.68.44,1.84-.78,3.79-.97,5.71-1.4,3.28-.75,6.55-1.62,9.87-2.07,1.88-.26,3.83-.43,5.74-.52,1.42-.07,2.84-.12,4.25-.26.26.32.39.19.46-.13,2.36-.23,4.72-.34,7.09.05.97.17,1.97.12,2.95.17.34.5.72.45,1.14.08,3.79.51,7.62.78,11.35,1.58,4.56.96,9.28,1.21,13.7,2.97,2.26.9,4.76,1.18,6.87,2.54,1.86,1.18,3.1,2.89,4.21,4.8,1.81,3.14,2.45,6.64,3.41,10.04.2.7.08,1.49.12,2.25-.36.32-.36.56.14.7.04.56.07,1.13.11,1.68-.39.45-.51.85.14,1.17.04.17.07.33.11.49-.41.45-.51.87.15,1.17.09.49.45.94.19,1.47-.58.06-.39.53-.36.82.13,1.15.32,2.3.49,3.45-.41.34-.31.78-.14,1.17.41.96-.28,1.96.14,2.9-.07.9-.02,1.8-.43,2.68-.17.37-.27.91.13,1.33-.36,4.41-1.37,8.59-3.48,12.54-1.9,3.54-4.29,6.65-7.05,9.5-.44.11-.76.33-.81.82l-.14.14c-.51.17-.97.39-1.11.97-1.27,1.04-2.56,2.06-3.82,3.13-1.48,1.26-3.08,2.35-4.68,3.42-1.54,1.03-3.16,1.94-4.74,2.9-.45.2-.91.39-1.35.62-.58.28-1.11.63-.89,1.42-.24,2.07-.39,4.11-1.9,5.84-1.01,1.16-2.23,1.62-3.55,2.05-.28-.18-.53-.19-.73.13-2.61.06-5.21.08-7.83-.05-3.64-.18-7.28.18-10.91.32-1.46-.21-2.92-.04-4.38-.07-.26,0-.46.09-.51.38-1.36.15-2.74.31-4.1.46-.15-.21-.36-.17-.57-.12-2.56.25-5.13.07-7.69.13-2.57.06-5.13-.12-7.69-.2,0-.32-.02-.68-.46-.65-1.26.07-2.54-.24-3.78.15l-.06-.04Zm2.82-72.96c-.15,0-.3.01-.45.02-.05-.04-.09-.06-.15-.06-.2-.36-.41-.71-.62-1.05-.13-.64-.24-1.28-.39-1.92-.08-.37.14-.92-.52-1-.04-.38-.07-.77-.12-1.15.2-.9-.18-1.29-1.08-1.2-.9-.26-1.36.44-1.92.91-.19.09-.25.27-.26.46-.09.06-.19.11-.28.17-.25.11-.49.21-.73.31-.52,0-1.05,0-1.11.72-.23.17-.45.34-.68.51-.47.02-.9.11-1,.69-.78.89-1.47,1.86-2.38,2.63-.31,0-.46.17-.49.45-.24.25-.47.5-.71.73l-.23.23.04.09c-.82-.09-1.67-.04-2.41-.53-.07-.11-.14-.2-.21-.31-.25-.57-.51-.58-.77,0-.14.02-.3.05-.44.07-.77-.06-1.39.15-1.67.95-.75.43-1.61.66-2.11,1.45-1.02,1.01-2.49,1.42-3.4,2.56-.69.23-1.16.75-1.67,1.21-.65,0-.97.31-.94.97h0c-1.08.23-1.78.81-1.86,1.98,0,.06-.04.12-.07.17-.66.12-.96.53-.94,1.18h0c-.72.08-.91.68-1.17,1.21-.52,1.26-1.56,2.22-1.96,3.54-.56.12-.43.57-.45.95l-.07.25c-.82.63-.97,1.58-1.26,2.48-.04.21-.07.41-.11.63-.31.07-.58.17-.2.51-.19.7-.37,1.4-.56,2.1-.43.18-.53.41-.17.76-.08.31-.17.63-.25.94-.5.12-.62.36-.21.73-.31.68-.25,1.4-.31,2.11-.32.09-.38.32-.41.63-.34,2.97-.23,5.96-.24,8.93,0,.32,0,.65.41.72.18,1.59.36,3.18.53,4.76.15.98-.08,2.05.63,2.92l.11.43c-.39.33-.14.43.18.51-.07.69.41,1.24.51,1.9,0,.63.02,1.24.6,1.66.12.4.23.79.34,1.2.04.38-.12.84.44.97.71,2.03,1.65,3.89,3.55,5.07.24.55.63.95,1.18,1.17.12.43.46.68.78.94.62,1.21,1.65,1.82,2.94,2.05.08.07.15.14.24.21.04.14.02.34.11.41.14.11.27-.02.33-.18.25.09.51.19.76.28.08.73.62.71,1.15.7.75.25,1.32.89,2.11,1.03.92,1.15,2.35,1.21,3.59,1.62.31.04.63.07.94.11.04.26.17.47.4.55,1.92.58,3.84,1.15,5.77,1.71.2.06.39-.04.52-.2l.44.06c.46.58,1.01.79,1.71.44,1.18.17,2.36.33,3.54.5.66.73,1.42.44,2.18.21.49-.02.96-.06,1.45-.08.07.04.13.06.2.08.37.75.91.46,1.45.24.31,0,.62,0,.92.01.28.69.83.37,1.3.34h12.48c.63.02,1.33.24,1.88.05.83-.3,1.85.25,2.52-.59l-.02-.06h1.17c.71.44,1.27.26,1.72-.4.38-.02.77-.05,1.15-.07.3.34.41.11.52-.17.31-.02.6-.05.91-.07.31.34.41.09.51-.18.15-.01.3-.02.45-.04.57.24,1.23.08,1.67-.09.71-.3,1.62-.09,2.14-.84.15-.02.32-.05.47-.07.28.36.41.2.49-.14.39-.11.79-.21,1.18-.31.56.26.96.12,1.21-.44.13-.02.26-.06.39-.08.43-.07.85-.13,1.27-.23,1.29-.28,2.58-.44,3.8.28.4.57.49,1.22.51,1.9-.47.65,0,.7.46.7,1.21.01,2.43.01,3.64,0,.27,0,.71.09.49-.46.06-.15.13-.3.19-.45.21-.23.44-.45.65-.68.78-.6,1.04-1.58.6-2.24-.05-1.56-.09-3.12-.14-4.68.04-.49-.17-.91-.37-1.33-.52-1.05-.72-2.12-.3-3.26.31-.56.85-.68,1.41-.73.24.31.49.34.73.02l.72-.02-.04.05c.31.76.91,1.36,1.04,2.22.05.3.23.6.6.64.25,1.45.66,1.62,1.82.84.3-.2.55-.45.68-.79.92-.14,1.59-.73,2.3-1.27,1.68-.28,2.83-1.34,3.82-2.63.08-.07.15-.15.24-.23,2.01-.56,3.39-1.92,4.54-3.58.15-.15.32-.31.47-.46.72-.11,1.07-.66,1.42-1.2h0c.43-.2.73-.53.96-.94.45-.52.98-1,1.35-1.58.43-.66,1.3-1.05,1.28-2,.08-.08.17-.17.24-.25,1.84-1.87,2.96-4.12,3.58-6.66.33-.94.92-1.81.7-2.88.02-.21.06-.44.08-.65.08,0,.17-.02.25-.04.91-.11.77-.87.85-1.45.13-.94.17-1.87.28-2.81.53-4.03.55-8.07.19-12.12-.02-.31-.11-.53-.44-.6-.13-.46.21-1.02-.28-1.41-.05-.57.15-1.16-.18-1.69v-.92c.2-.68.56-1.37-.24-1.93-.01-.31-.04-.62-.05-.92.33-.39.41-.73-.17-.96-.02-.24-.06-.47-.08-.7.3-.56.09-.95-.4-1.23-.18-.53-.32-1.07-.27-1.64.34-.38.07-.44-.24-.49-.25-.18-.21-.45-.21-.7-.15-1.39-.46-2.7-1.67-3.6-.25-.39-.5-.78-.75-1.17.01-.81-.49-1.21-1.16-1.46-.17-.65-.57-.97-1.24-.9-.24-.13-.46-.25-.7-.38-.64-.65-1.48-.78-2.33-.87-.08-.02-.17-.06-.24-.08-.09-.25-.2-.46-.51-.23-.17,0-.32-.02-.49-.04-.55-.46-1.08-.95-1.9-.68-1.04-.3-2.07-.59-3.12-.89-1.02-.68-2.16-.79-3.34-.7-.32-.04-.64-.06-.96-.09-.13-.45-.37-.45-.69-.19-.24-.02-.49-.06-.72-.08-.17-.4-.4-.44-.7-.14-.18.05-.34.09-.52.14-.07-.04-.15-.08-.23-.12-.14-.57-.39-.59-.71-.12-.17-.04-.33-.07-.49-.09.01-.37-.25-.41-.53-.5-1.16-.34-2.35-.23-3.52-.19-.58.07-1.14-.04-1.67-.28-.07-.13-.13-.36-.21-.37-1.92-.27-3.84-.53-5.77-.78-.27-.04-.43.15-.41.44-.4-.05-.82.06-1.2-.18-.13-.77-.52-.62-.98-.28-.27,0-.55-.05-.77.17-2.36-.18-4.7-.18-7.06-.05-.96-.56-1.92-.63-2.86.05l-.5.07c-.71-.45-1.41.09-2.13.02-2.29-.24-4.49.45-6.73.76-.32.05-.84.05-.89.6-.45.18-1.05-.15-1.39.41-.49.2-1.04-.01-1.5.3-.7-.64-2.13-.39-2.83.5-.37.36-.85.26-1.29.31-.64-.24-1.21.18-1.81.19-.36-.33-.45-.13-.47.23.04.05.02.11,0,.15l-.46-.12c-.6-.45-.95-.12-1.22.41.02.05.01.08-.02.12-.3-.17-.6-.04-.9-.02-.25-.43-.52-.14-.76,0-.21.13-.14.31.06.43.04,1.04-.4,2.14.36,3.1.04.24.07.46.11.7-.4.3-.55.71-.52,1.18-.07.08-.14.15-.23.24-.21.02-.43.06-.64.08-.37-.09-.7-.12-.81.37h-.45c-.15-.24-.31-.23-.47-.02l-.07-.04ZM8.22,110.72c0,.24-.02.46-.04.7-.49.28-.66.68-.44,1.22,0,.49-.36.94-.18,1.45l-.08-.04c-.58.36-.59.69.04,1,.58.77,1.45.31,2.17.51.28.69.75.5,1.21.24,1.02,0,2.04-.01,3.06-.04.34,0,.75.06.75-.49-.65-1.2-1.45-2.22-2.81-2.64,0-.41-.37-.59-.53-.91.06-1.14-.85-1.82-1.24-2.76-.23-.53-.53-1.29-1.15-1.17-.77.14-.36.98-.45,1.53v.96l-.07-.04c-.27.07-.53.15-.24.5h.01Z"/>
  <path class="cls-6" d="m52.06,8.33c.13-1.49,1.01-2.6,1.95-3.65,1.62-1.79,3.76-2.66,6.05-3.14,1.27-.27,2.59-.26,3.87.02.14.46.51.24.79.27,1.61.63,2.99,1.49,3.82,3.12.46.89.93,1.75,1.13,2.72.16.75.28,1.52.22,2.29-.3-.03-.28.2-.26.36.06.66-.16,1.27-.3,1.9-.31,1.01-.93,1.82-1.67,2.55-.6.59-1.24,1.13-1.86,1.69-.68.2-1.03.75-1.37,1.3-.72.81-1.29,1.71-1.69,2.73-.17.42-.05.76.14,1.1.44.79.35,1.6-.24,2.01-.6.42-1.74.31-2.24-.2-.15-.16-.27-.32-.29-.54-.22-2.07.1-4,1.39-5.71,1.01-1.34,2.17-2.49,3.46-3.55.83-.68,1.78-1.37,1.99-2.58.2,0,.39-.1.4-.3.06-.88.12-1.77-.04-2.65-.03-.18-.14-.34-.37-.35-.5-1.25-1.09-2.4-2.37-3.07-.4-.21-.76-.38-1.22-.42-2.11-.2-4.12.13-6.04,1.03-.14.06-.24.2-.36.3-.41.06-.65.31-.79.69-.07.07-.13.14-.2.21-.31.09-.57.22-.56.61-.31.86-.98,1.54-.99,2.55,0,.76.18,1.41.55,2.05.37.63.2,1.37-.38,1.74-.8.5-1.42.4-1.89-.38-.26-.43-.44-.91-.65-1.37.22-.18.13-.27-.09-.31-.33-.9-.19-1.8-.02-2.7.24-.02.33-.1.11-.3h0Z"/>
  <path class="cls-6" d="m61.53,29.98c-1.13,0-1.38-.24-1.4-1.35,0-.57,0-1.16,0-1.73-.02-.79.45-1.19,1.14-1.34,1.37-.29,1.74-.16,2.16.69.3.6.68,1.17.5,1.89-.29,1.16-1.15,1.83-2.4,1.83Z"/>
  <path class="cls-1" d="m126.34,74.72c-.17-1.15-.36-2.29-.49-3.45-.04-.28-.23-.75.36-.82.73,1.34.6,2.78.55,4.22-.14.01-.27.02-.41.04h0Z"/>
  <path class="cls-1" d="m126.03,82.8c-.39-.4-.28-.96-.13-1.33.39-.88.34-1.78.43-2.68.14.01.28.02.41.04.17,1.22-.01,2.42-.24,3.6-.06.31-.23.38-.49.37h.01Z"/>
  <path class="cls-5" d="m66.96,7.7c.23,0,.34.17.37.35.15.88.09,1.77.04,2.65-.02.2-.2.29-.4.3.26-1.1.12-2.2,0-3.3h0Z"/>
  <path class="cls-5" d="m3.78,117.9c1.23.87,2.62,1.41,4.02,1.94-1.4.41-3.39-.56-4.02-1.94Z"/>
  <path class="cls-5" d="m126.76,78.83c-.14-.01-.28-.02-.41-.04-.41-.95.28-1.94-.13-2.9-.17-.38-.27-.83.14-1.17.14-.01.27-.02.41-.04.11,1.39.13,2.76,0,4.15h-.01Z"/>
  <path class="cls-5" d="m68.14,126.87c.05-.3.25-.39.51-.38,1.46.04,2.93-.13,4.38.07-.14.37-.45.38-.78.38-1.37,0-2.75.13-4.11-.07Z"/>
  <path class="cls-5" d="m43.84,126.65c1.24-.39,2.52-.08,3.78-.15.44-.02.46.33.46.65-1.02-.37-2.07-.09-3.1-.21-.38-.05-.88.26-1.14-.28Z"/>
  <path class="cls-3" d="m69.34,12.22c.14-.63.36-1.24.3-1.9-.02-.17-.04-.4.26-.36.09.64-.06,1.26-.17,1.87-.04.22-.12.41-.39.39Z"/>
  <path class="cls-3" d="m97.96,118.26c-.21-.79.31-1.14.89-1.42.44-.23.9-.41,1.35-.62.05.44-.34.53-.59.64-.69.32-1.17.84-1.66,1.39h.01Z"/>
  <path class="cls-3" d="m64.44,17.76c.34-.56.69-1.1,1.37-1.3-.37.53-.72,1.07-1.37,1.3Z"/>
  <path class="cls-1" d="m56.2,6.22c.13-.38.38-.63.79-.69-.12.39-.35.66-.79.69Z"/>
  <path class="cls-3" d="m113.44,106.78c.14-.59.6-.81,1.11-.97-.18.56-.51.91-1.11.97Z"/>
  <path class="cls-5" d="m126.03,68.99c-.66-.31-.57-.72-.15-1.17.39.34.13.78.15,1.17Z"/>
  <path class="cls-1" d="m6.3,100.24c.02.43.25.94-.39,1.14.06-.4-.32-.96.39-1.14Z"/>
  <path class="cls-1" d="m55.44,7.05c-.02-.39.26-.51.56-.61,0,.38-.2.56-.56.61Z"/>
  <path class="cls-1" d="m85.73,39.6c-.4.37-.79.41-1.14-.08.39-.14.77-.21,1.14.08Z"/>
  <path class="cls-5" d="m125.77,67.32c-.65-.32-.53-.73-.14-1.17.43.34.23.77.14,1.17Z"/>
  <path class="cls-3" d="m114.69,105.66c.05-.49.37-.71.81-.82-.07.46-.36.72-.81.82Z"/>
  <path class="cls-5" d="m64.73,1.83c-.28-.03-.65.19-.79-.27.3,0,.62-.09.79.27Z"/>
  <path class="cls-3" d="m6.41,96.26c.36.21.24.51.15.81-.66-.15-.45-.47-.15-.81Z"/>
  <path class="cls-1" d="m91.78,126.29c.19-.32.45-.31.73-.13-.2.27-.45.33-.73.13Z"/>
  <path class="cls-5" d="m125.52,64.47c-.5-.14-.5-.38-.14-.7.3.18.19.45.14.7Z"/>
  <path class="cls-5" d="m52.06,8.33c.22.2.13.27-.11.3-.27-.21.07-.2.11-.3Z"/>
  <path class="cls-1" d="m63.47,127.22c.2-.05.41-.09.57.12-.19.08-.32.36-.57.2-.12-.07-.2-.21,0-.32Z"/>
  <path class="cls-5" d="m74.56,39.31c-.07.33-.2.45-.46.13.09-.24.26-.24.46-.13Z"/>
  <path class="cls-5" d="m51.97,11.34c.23.04.31.13.09.31-.14-.07-.14-.18-.09-.31Z"/>
  <path class="cls-4" d="m120.67,86.95c-.02.21-.06.44-.08.65-.08-.01-.17-.02-.25-.05-.94-.53-1.69-.44-2.45.45-.92,1.08-1.99,2.04-3,3.03-.71.7-1.14,1.5-.94,2.54,0,.75-.14,1.52.46,2.12.05.49-.18.92-.25,1.39-.17,1.09-.91,2-.95,3.14-.04.15-.07.3-.09.45-1.77-.87-3.67-.73-5.55-.66-1.35.05-2.67.32-3.16,1.88h0c-.98.26-1.37.97-1.41,1.93v.46c-.23.88-.21,1.86.09,2.6.4.96-.05,1.28-.57,1.86-.76.84-2,.6-2.78,1.46-.79.87-1.33.65-1.81-.46-.55-1.26-1.53-2.09-2.74-2.64-.9-.41-3.02.49-3.32,1.37-.08.26.14.32.34.36,0,.07.02.14.02.21-.11.15-.23.32-.33.47-.75.06-1.17.73-1.02,1.18.37,1.02.14,2.45,1.59,2.89,0,.31.02.62.02.92,0,.9-.02,1.8-.01,2.7,0,.38-.11.82.47.91l-.07,1.42c-.72-.18-1.02.73-1.91.58-1.17-.2-2.24-.52-3.27-1.04-.24-.11-.45-.28-.73-.21-.08-.08-.15-.17-.24-.24-.06-.56-.3-.64-.7-.25-.15-.02-.31-.05-.47-.07-.23-1.22-1.11-.66-1.66-.51-1.13.32-2.2.89-3.4.92-1.23.05-2.23.76-3.37,1.05-.46.12-.65.4-.64.85-.15.04-.31.08-.47.12-.33-.4-.78-.18-1.18-.23-.62-.24-1.36-.27-1.86-.07-1.71.66-3.46.73-5.23.76-1.93.04-3.86.04-5.79,0-.91-.02-1.78.36-2.71.25-2.68-.32-5.34-.53-8,.19-.56.15-1.18.14-1.75-.09-.71-.3-1.46-.34-2.22-.33-1.41.02-2.83-.05-4.24.04-.53.02-1.05-.39-1.58-.01-.32,0-.63-.02-.95-.02-.85-.81-1.68-1.41-3.03-1.29-1.56.14-3.25-.17-4.4-1.34-.95-.97-1.82-.78-2.84-.43-.18.02-.36.06-.53.08-.14,0-.28-.02-.41-.04v-.3c-.41-.85-1.23-1.2-2.03-1.42-1.64-.47-3.09-1.28-4.47-2.2-.83-.56-1.54-1.03-2.55-.94,0-1.01-.25-1.8-1.39-2.16-.5-.15-1.02-.46-1.27-1.11-.34-.95-1.08-1.56-2.12-1.72-.17-.32-.33-.63-.5-.95.65-1.29-.24-2.31-.79-3.22-.77-1.28-1.37-2.54-1.35-4.05.01-.69-.06-1.37-.94-1.55,0-.15,0-.32-.01-.47.69-.15.53-.58.3-.98-.2-.34-.49-.65-.51-1.05-.09-2.88-1.04-5.68-.76-8.59.13-1.37.01-2.77.01-4.16v-.94c.12-.04.32-.06.32-.12.26-1.69,1.07-3.26,1.11-4.99,0-.25-.04-.47-.25-.63,0-.15,0-.31.01-.46.12-.09.31-.18.36-.3.6-1.6,1.75-2.94,2.06-4.7.27-1.56,1.47-2.63,2.44-3.8.55-.65,1.07-1.34.23-2.16-.04-.08-.06-.18-.09-.26h0c.32-.23.64-.46.97-.7.19.73.59.5.9.14.44-.52.92-1.07.76-1.86,0-.07,0-.13.01-.2h.47c.78,0,1.68.2,2.09-.7.25-.55.63-.9,1.01-1.29.96-1,2.35-1.47,3.28-2.42,1.61-1.62,3.37-2.51,5.66-2.28.44.05,1.07.31,1.34-.39l-.04-.09c.09.01.18.02.27.04.23,0,.46-.02.69-.04.19.27.44.24.58.01.75-1.21,2.43-1.58,2.8-3.12.06-.24.27-.41.52-.43,1.33-.04,2.14-.91,2.97-1.77.41-.41.87-1.03,1.48-.77.53.23.6.94.73,1.53.21.92.51,1.82.87,2.71.3.75.85,1.18,1.74.88.19,0,.37-.02.47-.21h.47c.34.38.79.15,1.2.21.12.18.39.32.49.18.78-1.15,1.94-.56,2.94-.69l.18.18c0,.23-.01.46.27.52.21.05.34-.09.44-.26.15.02.3.04.45.06.01.4.25.51.6.44.19.01.39.04.58.05.21.64.7.95,1.33.95,4.4.01,8.79.08,13.19-.06.96-.04,2.39.12,2.88-1.33.15-.02.31-.05.47-.06.52.69,1.67-.24,2.04.78.3.82-.31,1.61-.12,2.44.05.19,0,.39,0,.59.01.47.25.73.72.76.26.17.23.44.25.69.12.75.39,1.48,1.26,1.42.7-.05,1.64.02,1.84-1.04.08,0,.15-.01.24-.02.79.28,1.62-.14,1.85-.63.65-1.47,1.84-2.28,3.08-3.12.63-.43.84-.38,1.08.32.4,1.18-.05,2.26-.33,3.35-.45,1.72-.09,3.63,1.02,4.36.34.23.84.83,1.18-.07v-.27c.24.05.47.08.71.13,0,.71.52.84,1.05.82.71-.04,2.33-1.54,2.51-2.28.36-1.45.75-2.88,1.09-4.31.25-1.02.28-2.19-.83-2.93v-.47c.84-.57,1.79-.5,2.74-.49.51,0,1.05.07,1.54-.05,2.65-.64,5.3-1.36,7.96-2,1.52-.37,2.61-1.24,3.4-2.54.25-.4.41-.63,1.01-.51,2.43.47,4.81,1.04,7,2.23.51.27.84.56.98,1.2.26,1.14,1.49,1.91,2.51,1.74.31.12.26.38.26.63-.77.21-.41.69-.26,1.13.44,1.26,1.29,2.41,1.29,3.79,0,1.78.68,3.42.88,5.17.06.49.15.85.72.9v10.01c0,.51-.13.97-.3,1.47-.39,1.14-1.58,1.94-1.35,3.32,0,.63-.01,1.27-.02,1.9-.47.58-.26,1.09.23,1.52.69.6,1.08,1.3.98,2.25-.02.25.09.45.31.58l-.05-.04Zm-96.36-.3c-.01-.15-.04-.31-.05-.46-.08-1.23-.34-2.36-1.67-2.87v-.21c.02-.52-.31-.83-.72-.98-3.33-1.26-6.04-1.1-8.07,2.03-.39.6-.85,1.47-.19,2.29-.08.39-.18.78-.26,1.18-.09.08-.19.15-.28.24-.33.05-.46.26-.46.58,0,1.66-.07,3.33.06,4.98.05.5-.18,1.33.64,1.6,0,.15.02.31.02.46-.73,1.14-.55,2.09.45,3.01,1.02.95,2.09,2.12,3.47,1.91,1.67-.26,3.25-1.1,4.86-1.71.17-.06.3-.25.44-.39,1.28-1.34,1.92-3.02,2.57-4.7.11-.28.17-.53-.13-.72-.07-1.81.25-3.65-.24-5.45.01-.33.07-.69-.41-.73l-.02-.04Zm22.61,9.6c.73.68,1.45.69,2.16-.04,1.28-1.02,2.56-2.05,3.84-3.07.14-.02.3-.04.44-.06,1.21.5,1.27,1.62,1.43,2.68.17,1.03.49,1.98,1.42,2.58.17.14.34.3.51.44.6.72,1.99.72,2.56,0,.08-.07.17-.15.25-.23.73-.06,1-.51.96-1.18.02-.07.05-.14.07-.21.52.02.65-.25.68-.73.12-2.44-1.02-4.57-1.72-6.79-.19-.59-.89-1.24-1.49-1.72-.5-.4-1.11-.68-1.58.13-1.58-.02-3.15.07-4.72-.13-.18-.02-.34-.05-.52-.07-.96-.36-1.92-.39-2.87.02l-.94-.3c.06-.56-.32-.75-.76-.89-1.15-.39-2.32-.27-3.5-.17-1.5.13-2.41,1.45-3.74,1.88-.9.3-1.47.85-1.55,1.85-.07,0-.14,0-.21.01-1.43.25-2.5,2.35-2.17,4.28.12.68,1.87,2.13,2.56,2.14,2.04.04,3.79-.97,5.56-1.72.79-.34.94-.19,1.16.36.33.79.84,1.14,1.69.85.15.04.32.06.47.09v-.02Zm25.76-5.78c-.62.02-1,.46-1.05.96-.21,1.66-.37,3.34.09,5,0,.15.02.31.04.46-.5.38-.15.69.08,1,.82,1.08,1.17,2.39,2.18,3.42,1.14,1.18,2.37,1.8,3.91,2.04,1.65.25,2.93-.39,4.02-1.54.45-.47,1.42-.58,1.4-1.33-.04-1.16.5-2.12.75-3.19.87-3.66.15-6.97-2.54-9.71-.59-.62-1.3-1.13-2.25-1.18-2.06-.14-3.84.75-5.63,1.53-.56.24-.98,1.02-.75,1.84-.08.24-.17.47-.25.71h0Z"/>
  <path class="cls-2" d="m72.16,54.19c-.15.02-.31.05-.47.06-2.45.26-4.87.77-7.37.7-3.34-.09-6.68.06-10.03-.26-.19-.01-.39-.04-.58-.05-.09-.3-.27-.49-.6-.44-.15-.02-.3-.04-.45-.06-.18-.25-.46-.21-.71-.26-.06-.06-.12-.12-.19-.18-.36-.78-.95-1.3-1.69-1.68-.09-.07-.19-.13-.28-.2-.04-.24-.07-.46-.11-.7.28-1.04-.26-2.18.37-3.18.32-.05.78.32.88-.33.04-.04.05-.07.02-.12.45.2.83-.13,1.26-.17.24.27.34.12.44-.13.04-.05.04-.09,0-.15.17,0,.32.01.49.02.64.01,1.33.21,1.8-.44.45-.05.92.05,1.29-.31.95-.12,1.99.24,2.83-.5.46-.31,1.03-.09,1.5-.3.95.41,1.75.06,2.52-.46l5.12-.68c.24.31.44.31.58-.08.68-.06,1.36-.11,2.04-.17,1.11.28,2.24.64,3.24-.31.33-.06.71.08,1-.21,2.36-.13,4.7-.13,7.06.05.2.34.47.36.79.15.32.09.65.19.96-.02.37.24.79.12,1.2.18.11.27.28.47.6.45,1.94-.14,3.85.53,5.81.26.53.24,1.09.34,1.67.27,1.26.77,2.68.57,4.05.69.17.04.33.07.49.09.2.25.44.26.71.12.07.04.15.08.23.12.13.78.64.55,1.11.44,1.05.59,2.22.55,3.37.57.59.04,1.18.08,1.78.12.02.11.07.18.19.09.12.04.24.06.36.09,0,.07.01.13.02.2.05-.05.08-.11.13-.15h.01c.15.15.3.31.45.46-.14,1.72-1.07,2.7-2.74,3.12-2.05.51-4.08,1.15-6.13,1.67-.71.18-1.22.76-2.07.71-1.66-.11-3.32-.02-4.98-.02-.07-.25-.27-.26-.47-.26-1.08-1.82-2.49-3.12-4.8-2.9-1.14-.63-2.12.25-3.19.34-.98-.11-1.74.21-2.24,1.09-.27.13-.53.27-.81.4-1.13-.05-1.82.95-2.89,1.15-1.21.23-2.36.72-3.53,1.09h-.02Z"/>
  <path class="cls-1" d="m102.96,104.29v-.46c.68-.49,1.35-.97,1.41-1.92h0c.12-.02.26,0,.34-.07,2.2-1.72,4.51-2.03,6.98-.53.18.11.52-.06.79-.11,0,.24,0,.47-.01.7h0c-.82,0-1.23.46-1.42,1.2-.15.15-.32.31-.47.46-.65-.11-1.04.38-1.4.73-1,1.01-2.39,1.56-3.14,2.84-.08.07-.15.15-.24.23-.73-.18-1,.7-1.65.75-.59-1.08-.77-2.26-.97-3.44-.02-.14-.15-.27-.23-.4v.02Z"/>
  <path class="cls-3" d="m41.43,121.24c.52-.38,1.04.05,1.58.01,1.41-.07,2.83,0,4.24-.04.76-.01,1.5.04,2.22.33.57.24,1.2.25,1.75.09,2.65-.72,5.33-.51,8-.19.94.11,1.79-.26,2.71-.25,1.93.04,3.86.04,5.79,0,1.77-.04,3.52-.09,5.23-.76.51-.2,1.26-.17,1.86.07-.78.47-1.67.58-2.56.71-.69.11-1.49-.06-2,.64-.15,0-.3.01-.45.02-.77-.32-1.46-.32-1.91.52l.02.06c-1.42-.19-2.86,0-4.28-.02-4.08-.01-8.15-.04-12.24-.05-.14,0-.3.09-.44.14h-.45c-.51-.63-1.09-.49-1.69-.18-.49.02-.97.05-1.45.06-.07-.02-.14-.06-.2-.08-.39-.73-.91-.47-1.45-.2-.31-.01-.62-.02-.94-.04-.14-.56-.6-.39-.97-.43-.81-.09-1.64-.11-2.39-.46v.02Z"/>
  <path class="cls-1" d="m120.33,87.56c.08.01.17.02.25.05.23,1.07-.37,1.94-.7,2.88-.79.19-.71.97-.92,1.49-.71,1.72-1.8,3.19-2.86,4.69-.77.04-.96-.96-1.71-.96-.6-.6-.46-1.39-.46-2.12.87-.06.6-.9.92-1.34,1.46-2,2.92-3.99,5.47-4.69Z"/>
  <path class="cls-3" d="m46.19,54.22c-.88.3-1.43-.13-1.74-.88-.36-.88-.65-1.79-.87-2.71-.13-.59-.2-1.3-.73-1.53-.62-.26-1.07.36-1.48.77-.84.85-1.65,1.74-2.97,1.77-.26,0-.47.19-.52.43-.37,1.54-2.05,1.92-2.8,3.12-.14.23-.39.26-.58-.01.13-.33.53-.53.45-.97,0-.15,0-.31.01-.46.92-.76,1.6-1.74,2.38-2.63.17,0,.32-.02.49-.04.41.45.41.08.45-.23.02-.14.04-.28.06-.43.23-.17.45-.34.68-.51.49.07.72-.47,1.17-.49.4.02.78.04.66-.55.09-.06.19-.11.28-.17.37.07.69.02.76-.43.33,0,.64-.08.9-.31.7-.27,1.03.49,1.6.56.04.38.07.77.12,1.15-.18.75.18,1.43.23,2.14-.23,1.01.21,1.6,1.32,1.81.06,0,.11.01.15.06,0,.17-.01.33-.02.5v.02Z"/>
  <path class="cls-3" d="m102.96,104.29c.08.13.2.26.23.4.2,1.18.39,2.37.97,3.44-.47.92-1.74.92-2.18,1.88-.71.52-1.37,1.13-2.3,1.26-.19,0-.45-.09-.57,0-.69.56-1.14.43-1.46-.38-.04-.09-.27-.12-.4-.18-.52-.82-.37-2.13-1.73-2.33l.04-.05c-.09-.49-.33-.57-.72-.28h-.71c-.92-.43-1.45.15-1.94.79-.2-.04-.43-.11-.34-.36.31-.89,2.42-1.79,3.32-1.37,1.21.56,2.19,1.39,2.74,2.64.49,1.11,1.02,1.34,1.81.46.78-.85,2.01-.62,2.78-1.46.52-.57.97-.89.57-1.86-.31-.73-.32-1.72-.09-2.6h0Z"/>
  <path class="cls-3" d="m33.58,55.25c-.27.7-.9.44-1.34.39-2.3-.24-4.06.65-5.66,2.28-.94.95-2.32,1.42-3.28,2.42-.38.39-.76.76-1.01,1.29-.4.9-1.32.69-2.09.7.51-.71,1.13-1.33,1.82-1.82.4-.28.63-.57.55-1.07.91-1.15,2.38-1.55,3.4-2.56,1.26-.25,2.39-.73,3.28-1.71.15-.08.31-.17.46-.25.49-.01,1.02.21,1.46-.19.73.5,1.59.44,2.41.53h0Z"/>
  <path class="cls-3" d="m119.16,80.7c-.23-1.37.97-2.18,1.35-3.32.17-.5.3-.96.3-1.47v-9.07c.18,0,.34-.01.52-.02.33.53.13,1.14.18,1.71-.3.83-.53,1.66.15,2.43.13,2.37.23,4.75-.12,7.11-1.1-.06-1.21.94-1.61,1.59-.24.37-.18.95-.77,1.04Z"/>
  <path class="cls-5" d="m121.54,78.07c.34-2.37.25-4.74.12-7.11.05-.34.08-.68.13-1.02.33.07.41.3.44.6.36,4.05.34,8.08-.19,12.12-.12.94-.17,1.87-.28,2.81-.08.58.06,1.34-.85,1.45-.02-.17-.05-.32-.07-.49.31-.07.47-.21.32-.55,0-.28.02-.57.04-.85.4-1.93.49-3.89.57-5.84.01-.38.14-.79-.21-1.11h0Z"/>
  <path class="cls-1" d="m50.95,122.57c.14-.05.3-.14.44-.14,4.08,0,8.15.02,12.24.04-.04.19-.08.38-.12.58h-12.48c-.02-.15-.05-.32-.08-.49h0Z"/>
  <path class="cls-3" d="m20.21,113.35c1.01-.09,1.73.38,2.55.94,1.36.92,2.83,1.73,4.47,2.2.79.23,1.61.57,2.03,1.42-.41-.05-.84-.11-1.26-.15-.46-.09-.92-.2-1.37-.3-.81-.14-1.36-.78-2.11-1.03-.14-.63-.65-.65-1.15-.7-.25-.09-.51-.19-.76-.28-.15-.08-.3-.15-.45-.24-.08-.07-.15-.14-.24-.21-.41-.72-1.33-.89-1.75-1.59l.05-.05h0Z"/>
  <path class="cls-3" d="m87.66,119.08c1.03.53,2.1.85,3.27,1.04.89.15,1.18-.77,1.91-.58h.11c0,.34-.33.66-.06,1.02-.21.23-.44.45-.65.68-.39,0-.85-.18-1.01.4h-2.81c-.53-.78-.49-1.72-.75-2.57h-.01Z"/>
  <path class="cls-3" d="m76.47,120.63c-.01-.46.17-.73.64-.85,1.14-.3,2.13-1.01,3.37-1.05,1.2-.04,2.28-.6,3.4-.92.56-.15,1.45-.71,1.66.51-1.33.06-2.6.31-3.66,1.2-.13.02-.26.06-.39.08-.24-.01-.49-.02-.72-.05-.7-.28-1.15.23-1.67.52-.14.01-.28.02-.41.04-.23-.06-.41-.05-.53.19-.59-.06-1.07.46-1.67.36h0Z"/>
  <path class="cls-3" d="m11.36,111.71c.17.31.55.5.53.91.62.72,1.24,1.45,1.86,2.18-.64,1.01-1.6.24-2.39.45,0-.43.41-.4.65-.58.37-.26.43-.65.07-.89-.97-.6-1.29-1.67-1.86-2.54-.4-.62-.82-.77-1.46-.51h-.27c-.01-.17-.04-.34-.05-.51l.07.04c.75-.15.36-.77.49-1.17.38-.04.51.24.73.47.62.66.81,1.65,1.62,2.16h0Z"/>
  <path class="cls-1" d="m12.1,76.16c0,.15,0,.31-.01.46-.91,1.8-.9,3.8-1.17,5.74v.94h-.47c-.01-.72-.04-1.45-.05-2.17.06-.71,0-1.43.31-2.11.27-.18.24-.46.21-.73.08-.31.17-.63.25-.94.32-.19.21-.49.17-.76.19-.7.37-1.4.56-2.1.21-.11.25-.3.2-.51.04-.21.07-.41.11-.63.59-.08.53-.73.87-1.03.06.77-.09,1.49-.56,2.13-.37.51-.45,1.09-.4,1.69h0Z"/>
  <path class="cls-3" d="m15.44,108.35c1.04.17,1.78.78,2.12,1.72.24.65.77.96,1.27,1.11,1.14.36,1.37,1.15,1.39,2.16l-.05.05c-.4,0-.6-.37-.91-.53-.14-.55-.39-.96-1.05-.87-.56-.23-.94-.63-1.17-1.17-.08-1.11-1.26-1.53-1.59-2.48h0Z"/>
  <path class="cls-5" d="m10.37,81.14c.01.72.04,1.45.05,2.17-.23,2.7-.33,5.4-.09,8.11h-.2c-.43-.07-.41-.4-.41-.72,0-2.99-.11-5.96.24-8.93.04-.3.09-.53.41-.63h.01Z"/>
  <path class="cls-5" d="m70.84,44.16c-.68.06-1.36.11-2.04.17-.21-.08-.41-.17-.59.08-1.71.23-3.41.45-5.11.68-.39-.33-.75.19-1.14.05.05-.56.56-.56.89-.6,2.24-.31,4.44-1,6.73-.76.72.07,1.42-.47,2.13-.02-.17.39-.69.06-.87.41h-.01Z"/>
  <path class="cls-5" d="m91.47,44.68c-1.96.28-3.86-.4-5.81-.26-.32.02-.5-.18-.6-.45,0-.28.14-.47.41-.44,1.92.24,3.85.5,5.77.78.08.01.14.25.21.37h.01Z"/>
  <path class="cls-5" d="m116.1,96.67c1.05-1.5,2.14-2.97,2.86-4.69.23-.53.14-1.3.92-1.49-.6,2.54-1.74,4.79-3.58,6.66-.09,0-.18,0-.27.01.02-.17.05-.33.06-.49h.01Z"/>
  <path class="cls-1" d="m41.43,121.24c.76.36,1.59.38,2.39.46.37.04.83-.13.97.43-.41.04-.83.07-1.26.11-1.18-.17-2.36-.33-3.54-.5-.5-.41-1.13-.32-1.71-.44-.14-.02-.3-.04-.44-.06-.19-.4-.78-.07-.95-.51.25-.3.55-.2.87-.13.9.21,1.81.41,2.73.62.32,0,.63.02.95.02h-.01Z"/>
  <path class="cls-5" d="m106.03,107.16c.75-1.28,2.14-1.84,3.14-2.84.36-.36.75-.84,1.4-.73-1.14,1.66-2.51,3.03-4.54,3.58Z"/>
  <path class="cls-3" d="m9.69,115.55c-.71-.21-1.59.25-2.17-.51,0-.33-.02-.66-.04-1l.08.04c.81-.44.72-1.26.85-1.98,0-.14,0-.27.01-.41h.31c.55.47.02.97-.02,1.42-.12.96-.38,1.86,1.13,1.72.28-.02.32.3.34.53-.17.06-.34.13-.51.19h.01Z"/>
  <path class="cls-1" d="m15.44,108.35c.33.95,1.5,1.36,1.59,2.48-1.91-1.18-2.84-3.05-3.55-5.07.04-.09.07-.2.11-.3.71.46.69,1.45,1.36,1.94.17.32.33.63.5.95Z"/>
  <path class="cls-5" d="m36.9,120.73c.17.44.76.11.95.51-.14.17-.33.25-.52.2-1.92-.56-3.85-1.13-5.77-1.71-.24-.07-.37-.28-.4-.55.36-.17.63.19.96.14,1.04.32,2.11.58,3.12.98.56.23,1.05.52,1.67.4h0Z"/>
  <path class="cls-5" d="m11.36,111.71c-.82-.5-1-1.49-1.62-2.16-.23-.24-.36-.51-.73-.47-.17.07-.32.15-.49.23.09-.55-.32-1.37.45-1.53.62-.12.94.64,1.15,1.17.39.94,1.3,1.62,1.24,2.76Z"/>
  <path class="cls-1" d="m92.46,114.52c0-.31-.02-.62-.02-.92.02-.09.05-.19.07-.28.28.11.57.21.84.33.05,1.56.09,3.12.14,4.68-.15.41.04,1-.55,1.23h-.11c.02-.47.05-.95.07-1.42v-2.68c0-.38.09-.82-.45-.92h0Z"/>
  <path class="cls-1" d="m120.12,58.52c-.05.57.09,1.1.27,1.64,0,.46.11.88.4,1.23.02.24.06.47.08.7h-.19c-.73-.7-.65-1.69-.94-2.56-.47-1.48-.98-2.94-1.48-4.41.94.44.64,1.65,1.39,2.19,0,.26-.04.52.21.7-.02.21.01.4.24.49v.02Z"/>
  <path class="cls-3" d="m121.19,85.03c0,.28-.02.57-.04.85-.26.09-.36.28-.32.55.02.17.05.32.07.49-.08,0-.17.02-.25.04-.23-.13-.33-.33-.31-.58.09-.94-.3-1.65-.98-2.25-.49-.43-.7-.94-.23-1.52.5.96,1.13,1.81,2.04,2.43h.01Z"/>
  <path class="cls-3" d="m50.08,52.02c.75.38,1.34.91,1.69,1.68-1,.13-2.16-.46-2.94.69-.09.14-.36,0-.49-.18.23-.33.79-.41.71-.97.07-.08.14-.15.23-.24.72.04.7-.53.81-.98h-.01Z"/>
  <path class="cls-1" d="m70.24,121.88c.51-.7,1.32-.53,2-.64.89-.13,1.78-.24,2.56-.71.4.05.85-.18,1.18.23-.46.45-1.26.17-1.67.73-.15.01-.3.02-.45.04-.21-.06-.4-.05-.51.18-.31.02-.6.05-.91.07-.21-.08-.4-.07-.52.17-.38.02-.77.05-1.15.07-.18-.05-.37-.09-.55-.14h.01Z"/>
  <path class="cls-5" d="m81.88,119.5c1.05-.89,2.32-1.14,3.66-1.2.15.02.31.05.47.07.17.27.44.24.7.25.08.08.15.17.24.24,0,.24.01.46.02.7-1.22-.72-2.5-.57-3.8-.28-.43.09-.85.14-1.27.23h-.02Z"/>
  <path class="cls-5" d="m93.35,113.64c-.28-.11-.57-.21-.84-.33-.19-1.27-.72-2.48-.65-3.78.11-.15.23-.32.33-.47h.49c-.43,1.14-.23,2.2.3,3.26.2.41.4.84.37,1.33h.01Z"/>
  <path class="cls-1" d="m13.96,69.69c.4-1.32,1.43-2.29,1.96-3.54.23-.09.45-.18.69-.27-.53,1.64-1.66,2.93-2.56,4.35l-.07-.06v-.47h-.01Z"/>
  <path class="cls-5" d="m63.51,123.03c.04-.19.08-.38.12-.58,1.43.01,2.86-.17,4.28.02-.68.85-1.69.3-2.52.59-.55.2-1.24-.01-1.88-.05h.01Z"/>
  <path class="cls-5" d="m88.41,121.67h2.81c.27.01.55.04.82.05.23.56-.21.46-.49.46-1.21.01-2.43,0-3.64,0-.47,0-.94-.06-.46-.7.3.14.6.31.95.2h.01Z"/>
  <path class="cls-1" d="m10.68,96.18c-.18-1.59-.36-3.18-.53-4.76h.19c.11.11.28.2.3.31.19,1.56.37,3.13.55,4.69-.17-.08-.33-.15-.5-.24Z"/>
  <path class="cls-1" d="m113.08,100.69c.04-.15.07-.3.11-.45.33-.15.51-.46.75-.72.68-.75,1.22-1.61,2.06-2.19l.07.07c.02.95-.85,1.34-1.28,2-.37.58-.89,1.05-1.35,1.58-.09-.04-.2-.06-.3-.09,0-.07-.02-.13-.06-.19h0Z"/>
  <path class="cls-1" d="m97.25,110.7c.14.06.37.08.4.18.32.81.77.94,1.46.38.11-.09.37,0,.57,0-.13.34-.38.59-.68.79-1.16.78-1.58.6-1.82-.84.02-.18.05-.34.07-.52h0Z"/>
  <path class="cls-5" d="m101.98,110.02c.44-.96,1.71-.96,2.18-1.88.64-.05.9-.92,1.65-.75-.98,1.29-2.13,2.35-3.82,2.63h-.01Z"/>
  <path class="cls-1" d="m22.56,59.43c.08.5-.15.77-.55,1.07-.7.51-1.32,1.13-1.82,1.82h-.47c.08-.24.15-.49.24-.72h0c.43-.21.76-.51.94-.97.52-.46.98-.98,1.67-1.21h0Z"/>
  <path class="cls-3" d="m19.71,62.52c.18.79-.31,1.34-.76,1.86-.3.36-.71.59-.9-.14,0-.17-.02-.33-.04-.5.04-.05.06-.11.07-.17.7-.09.89-.98,1.61-1.05h.01Z"/>
  <path class="cls-1" d="m11.37,115.24c.78-.21,1.75.56,2.39-.45.34.11.53.51.95.47,0,.55-.4.49-.75.49-1.02.01-2.04.02-3.06.04-.08-.24-.3-.27-.5-.34.27-.28.64-.15.96-.2Z"/>
  <path class="cls-5" d="m97.19,45.65c-1.37-.12-2.8.08-4.05-.69,1.17-.04,2.36-.15,3.52.19.28.08.55.12.53.5Z"/>
  <path class="cls-3" d="m70.84,44.16c.19-.36.7-.02.87-.41l.5-.07c.62.06,1.24.12,1.86.18-1,.95-2.12.6-3.24.31h.01Z"/>
  <path class="cls-1" d="m11.85,98.1c0,.15,0,.32.01.47.14,1.1.64,2.16.49,3.31-.09.01-.18.02-.27.05-.09-.65-.57-1.2-.51-1.9.05-.21.02-.39-.18-.51l-.11-.43c.04-.33.07-.68.11-1.01h.46Z"/>
  <path class="cls-5" d="m74.33,121.49c.41-.57,1.2-.3,1.67-.73.15-.04.31-.08.47-.12.6.11,1.08-.41,1.67-.36v.27c-.52.75-1.43.53-2.14.84-.44.19-1.09.34-1.67.09Z"/>
  <path class="cls-5" d="m119.67,57.32c-.76-.55-.45-1.77-1.39-2.19-.02-.07-.05-.13-.09-.19,0-.25.04-.51-.26-.63,0-.09-.02-.19-.02-.28.04-.09.07-.2.11-.3,1.2.9,1.52,2.22,1.67,3.6h-.01Z"/>
  <path class="cls-1" d="m88.41,121.67c-.36.11-.65-.05-.95-.2-.02-.68-.11-1.33-.51-1.9,0-.24-.01-.46-.02-.7.28-.07.5.12.73.21.27.85.21,1.8.75,2.57h0Z"/>
  <path class="cls-5" d="m59.06,45.84c-.84.73-1.88.38-2.83.5.7-.89,2.13-1.14,2.83-.5Z"/>
  <path class="cls-5" d="m26.63,117.45c.46.09.92.2,1.37.3.31.44.71.65,1.26.45.14,0,.28.02.41.04.08.26.26.38.53.38h0c0,.15,0,.31.01.46-1.26-.43-2.68-.47-3.59-1.62Z"/>
  <path class="cls-5" d="m19.27,112.86c.31.17.51.53.91.53.43.71,1.34.88,1.75,1.59-1.29-.23-2.32-.84-2.94-2.05.09-.02.19-.05.27-.07Z"/>
  <path class="cls-5" d="m14.7,115.27c-.41.04-.6-.37-.95-.47-.62-.72-1.24-1.45-1.86-2.18,1.36.43,2.17,1.46,2.81,2.64h0Z"/>
  <path class="cls-5" d="m104.88,47.11c-.59-.04-1.18-.08-1.78-.12.02-.65-.73-.21-.88-.64,1.18-.09,2.32.01,3.34.7,0,.09.01.19.02.28h-.01s-.08-.07-.14-.05c-.12-.04-.24-.06-.36-.09-.04-.08-.11-.11-.19-.09h-.01Z"/>
  <path class="cls-1" d="m29.24,55.16c-.89.97-2.03,1.45-3.28,1.71.5-.78,1.36-1.02,2.11-1.45.39-.08.78-.18,1.17-.26Z"/>
  <path class="cls-3" d="m102.23,46.35c.14.41.9-.01.88.64-1.15-.02-2.31.02-3.37-.57.28-.05.57-.09.85-.15.23,0,.45,0,.68-.01.32.04.64.06.96.09Z"/>
  <path class="cls-5" d="m97.25,110.7c-.02.18-.05.34-.07.52-.39-.04-.57-.34-.6-.64-.13-.85-.73-1.46-1.04-2.22,1.36.2,1.2,1.52,1.73,2.33h-.01Z"/>
  <path class="cls-1" d="m50.05,47.95c-.63,1.01-.08,2.13-.37,3.18-.76-.96-.31-2.06-.36-3.1.21-.08.44-.15.65-.24.02.06.05.11.07.17Z"/>
  <path class="cls-5" d="m19.71,62.52c-.72.07-.91.96-1.61,1.05.07-1.17.77-1.75,1.86-1.98-.08.24-.15.49-.24.72-.01.07-.02.13-.01.2Z"/>
  <path class="cls-1" d="m105.58,47.33c0-.09-.01-.19-.02-.28,1.04.3,2.07.59,3.12.89v.3c-.92.09-1.78-.21-2.65-.45-.15-.15-.3-.31-.45-.46h.01Z"/>
  <path class="cls-5" d="m74.07,43.85c-.62-.06-1.24-.12-1.86-.18.95-.68,1.9-.59,2.86-.05-.28.3-.66.15-1,.21h0Z"/>
  <path class="cls-5" d="m44.74,51.85c-.04-.72-.4-1.41-.23-2.14.66.07.44.63.52,1,.15.63.26,1.28.39,1.91-.49-.02-.37-.59-.69-.76Z"/>
  <path class="cls-5" d="m13.05,72.33c-.34.3-.28.94-.87,1.03.28-.89.45-1.85,1.26-2.48.04.09.07.18.11.27-.17.39-.33.78-.5,1.17Z"/>
  <path class="cls-3" d="m61.95,45.14c.39.14.75-.38,1.14-.05-.78.52-1.59.88-2.52.46.33-.57.94-.23,1.39-.41Z"/>
  <path class="cls-5" d="m11.41,98.08c-.04.33-.07.68-.11,1.01-.71-.87-.47-1.93-.63-2.92.17.08.33.15.5.24-.11.58.12,1.11.24,1.66h0Z"/>
  <path class="cls-1" d="m44.41,48.54c-.57-.07-.9-.83-1.6-.56.04-.33.38-.4.52-.64.9-.08,1.28.3,1.08,1.2Z"/>
  <path class="cls-1" d="m44.74,51.85c.32.17.21.73.69.76.2.36.41.71.62,1.05-1.1-.21-1.54-.82-1.32-1.81h.01Z"/>
  <path class="cls-5" d="m111.81,48.95c.85.08,1.69.2,2.33.87,0,.09-.01.19-.02.27-.72.05-1.17-.62-1.86-.66-.15-.15-.31-.32-.45-.47Z"/>
  <path class="cls-1" d="m121.8,69.94c-.05.34-.08.68-.13,1.02-.69-.77-.45-1.6-.15-2.43.49.39.15.95.28,1.41Z"/>
  <path class="cls-1" d="m118,53.72c-.04.09-.07.2-.11.3-.83-.38-1.24-1.05-1.37-1.92.25.15.49.3.73.45.25.39.5.78.75,1.17Z"/>
  <path class="cls-5" d="m92.95,119.56c.58-.24.38-.81.55-1.23.45.68.19,1.65-.6,2.24-.27-.36.06-.68.06-1.02h0Z"/>
  <path class="cls-5" d="m43.33,47.34c-.14.24-.49.31-.52.64-.26.23-.57.3-.9.31-.17-.01-.33-.02-.5-.04.56-.47,1.02-1.17,1.92-.91Z"/>
  <path class="cls-1" d="m92.69,109.06h-.49c0-.07-.01-.14-.02-.21.5-.64,1.02-1.22,1.94-.79,0,.09,0,.19-.01.28-.57.06-1.1.18-1.41.73h-.01Z"/>
  <path class="cls-5" d="m29.24,55.16c-.39.08-.78.18-1.17.26.28-.79.9-1.02,1.67-.95-.01.14-.02.3-.04.44-.15.08-.31.17-.46.25Z"/>
  <path class="cls-1" d="m67.9,122.42c.45-.85,1.14-.84,1.91-.52-.24.18-.49.36-.72.53h-1.18Z"/>
  <path class="cls-1" d="m49.05,53.26c.08.56-.47.64-.71.97-.4-.06-.84.17-1.2-.2v-.3h.45c.36.07.68.06.81-.37.21-.02.43-.06.64-.08v-.02Z"/>
  <path class="cls-5" d="m43.54,122.23c.41-.04.83-.07,1.26-.11.31.01.62.02.94.04v.28c-.76.23-1.52.52-2.18-.21h-.01Z"/>
  <path class="cls-1" d="m8.44,112.1c-.13.72-.06,1.54-.85,1.98-.18-.51.17-.96.18-1.45.23-.18.46-.36.69-.53h-.01Z"/>
  <path class="cls-5" d="m108.67,48.24v-.3c.81-.28,1.35.21,1.9.66v.17c-.63-.18-1.26-.36-1.88-.53h-.01Z"/>
  <path class="cls-5" d="m121.1,63.97c.79.56.45,1.26.24,1.93h-.3c-.02-.46-.04-.94-.06-1.4.04-.18.08-.36.12-.53Z"/>
  <path class="cls-5" d="m69.07,122.44c.24-.18.49-.36.72-.53.15,0,.3-.01.45-.02.18.05.37.09.55.14-.45.66-1.01.84-1.72.4h0Z"/>
  <path class="cls-5" d="m12.09,101.92c.09-.01.18-.02.27-.05.36.51.43,1.1.47,1.71h-.14c-.57-.41-.6-1.04-.6-1.66Z"/>
  <path class="cls-3" d="m54.93,46.64c-.47.65-1.16.45-1.8.44,0-.08,0-.17-.01-.25.62-.01,1.18-.43,1.81-.19Z"/>
  <path class="cls-1" d="m30.22,119.08c0-.15,0-.31-.01-.46.72.01,1.5-.14,1.91.71-.33.05-.6-.31-.96-.14-.31-.04-.63-.07-.94-.11Z"/>
  <path class="cls-5" d="m117.25,52.54c-.25-.15-.49-.3-.73-.45-.15-.17-.32-.32-.47-.49,0-.15,0-.31-.01-.46l.06-.06c.68.25,1.17.65,1.16,1.46Z"/>
  <path class="cls-5" d="m111.04,103.11c.19-.73.62-1.21,1.42-1.2-.37.53-.71,1.09-1.42,1.2Z"/>
  <path class="cls-1" d="m48.82,122.39c.6-.3,1.2-.45,1.69.18-.26.05-.52.09-.78.13-.31,0-.62,0-.92-.01v-.3h.01Z"/>
  <path class="cls-1" d="m100.59,46.26c-.28.05-.57.09-.85.15-.47.12-1,.34-1.11-.44.18-.05.36-.09.52-.14.19.3.44.26.7.14.24.02.49.06.72.08,0,.07,0,.13.02.2Z"/>
  <path class="cls-1" d="m79.1,120.05c.52-.3.97-.81,1.67-.52l-.49.49c-.39.11-.79.21-1.18.31v-.27Z"/>
  <path class="cls-5" d="m16.6,65.88c-.23.09-.45.18-.69.27.25-.53.44-1.14,1.17-1.21.04.08.06.18.09.26-.19.23-.39.45-.58.68Z"/>
  <path class="cls-1" d="m13.03,104.78c-.12-.4-.23-.79-.34-1.2h.14c.77.32.65,1.03.7,1.66-.17-.15-.33-.3-.5-.45h0Z"/>
  <path class="cls-5" d="m38.29,121.3c.57.12,1.21.01,1.71.44-.7.37-1.24.14-1.71-.44Z"/>
  <path class="cls-5" d="m48.82,122.39v.3c-.53.23-1.07.51-1.45-.24.49-.02.97-.05,1.45-.06Z"/>
  <path class="cls-5" d="m8.44,112.1c-.23.18-.45.36-.69.53-.23-.55-.05-.94.44-1.22.08.08.18.18.26.26,0,.14,0,.27-.01.41h0Z"/>
  <path class="cls-1" d="m50.08,52.02c-.11.46-.09,1.03-.81.98-.02-.49.13-.89.52-1.2.09.07.19.13.28.2h0Z"/>
  <path class="cls-5" d="m83.87,43.8c-.32.21-.64.13-.96.02,0-.11,0-.21-.01-.32.45-.33.85-.47.98.28h-.01Z"/>
  <path class="cls-1" d="m45.72,122.46v-.28c.53-.27,1.05-.53,1.45.2-.49.02-.96.06-1.45.08Z"/>
  <path class="cls-1" d="m121.1,63.97c-.04.18-.08.36-.12.53-.66-.39-.44-.92-.21-1.45h.28c.01.31.04.62.05.92h0Z"/>
  <path class="cls-1" d="m29.71,54.9c.01-.14.02-.3.04-.44.14-.02.3-.05.44-.07h.77c.07.11.14.2.21.31-.44.4-.96.18-1.46.19h0Z"/>
  <path class="cls-1" d="m23.35,115.72c.5.05,1.01.08,1.15.7-.53,0-1.07.04-1.15-.7Z"/>
  <path class="cls-5" d="m18.02,63.74c0,.17.02.33.04.5-.32.24-.64.46-.97.7-.02-.66.27-1.07.94-1.18h0Z"/>
  <path class="cls-5" d="m52.2,47.34c-.41.04-.81.37-1.26.17.27-.52.62-.87,1.22-.41,0,.08.02.17.02.25h.01Z"/>
  <path class="cls-1" d="m111.81,48.95c.15.15.31.32.45.47-.65.02-1.33.09-1.69-.64v-.17c.17,0,.32.02.49.04.08.26.27.31.51.23.08.02.17.06.24.08h.01Z"/>
  <path class="cls-5" d="m114.84,50.19c.69-.07,1.08.26,1.24.9l-.06.06c-.15,0-.31-.01-.45-.02-.17-.15-.33-.31-.5-.47-.08-.15-.15-.32-.24-.47h0Z"/>
  <path class="cls-1" d="m34.96,54.19c.08.44-.32.64-.45.97-.23,0-.46.02-.69.04-.01-.09-.02-.18-.05-.27.24-.25.47-.5.71-.73h.47Z"/>
  <path class="cls-5" d="m49.73,122.71c.26-.05.52-.09.78-.13h.45c.02.15.05.32.08.49-.47.04-1.02.36-1.3-.34h-.01Z"/>
  <path class="cls-5" d="m80.28,120.02l.49-.49c.24.01.49.02.72.05-.26.56-.66.7-1.21.44Z"/>
  <path class="cls-5" d="m10.41,115.44c.19.07.41.11.5.34-.47.26-.92.45-1.21-.24.17-.06.34-.13.51-.19.06.06.13.09.21.08h-.01Z"/>
  <path class="cls-1" d="m19.27,112.86c-.09.02-.19.05-.27.07-.32-.26-.66-.51-.78-.94.66-.09.91.32,1.05.87Z"/>
  <path class="cls-1" d="m8.52,109.31c.17-.07.32-.15.49-.23-.13.4.26,1.03-.49,1.17v-.96h0Z"/>
  <path class="cls-5" d="m20.89,60.64c-.17.46-.5.76-.94.97-.05-.66.28-.97.94-.97Z"/>
  <path class="cls-5" d="m40.21,49.43c-.45.01-.69.56-1.17.49.05-.73.58-.72,1.11-.72.02.08.05.15.06.24Z"/>
  <path class="cls-5" d="m120.81,61.38c-.31-.36-.41-.77-.4-1.23.51.28.7.68.4,1.23Z"/>
  <path class="cls-5" d="m49.97,47.78c-.21.08-.44.15-.65.24-.2-.12-.27-.28-.06-.43.24-.14.51-.41.76,0,0,.07-.01.13-.05.19Z"/>
  <path class="cls-1" d="m121.05,65.91h.3v.92c-.18,0-.34.01-.52.02v-.95h.24-.01Z"/>
  <path class="cls-5" d="m37.85,51.08c-.17,0-.32.02-.49.04.09-.58.52-.66,1-.69-.02.14-.04.28-.06.43-.15.07-.3.15-.45.23Z"/>
  <path class="cls-5" d="m7.5,114.03c0,.33.02.66.04,1-.63-.31-.62-.65-.04-1Z"/>
  <path class="cls-1" d="m114.84,50.19c.08.15.15.32.24.47-.44,0-.81-.09-.95-.57,0-.09.01-.19.02-.27.24.12.46.25.7.37h-.01Z"/>
  <path class="cls-5" d="m113.14,100.88c.09.04.2.06.3.09-.23.4-.55.72-.96.94,0-.24,0-.47.01-.7.21-.11.44-.21.65-.32h0Z"/>
  <path class="cls-1" d="m8.45,111.69c-.08-.08-.18-.18-.26-.26,0-.24.02-.46.04-.7h.56c0,.32-.02.63-.02.95h-.31Z"/>
  <path class="cls-3" d="m49.97,47.78s.05-.12.05-.19c.3-.01.6-.15.9.02-.09.64-.57.28-.88.33-.02-.05-.05-.11-.07-.17Z"/>
  <path class="cls-5" d="m121.06,63.06h-.28c-.02-.32-.05-.64-.07-.96h.19c.59.23.5.57.17.96Z"/>
  <path class="cls-1" d="m92.05,121.7c-.27-.01-.55-.04-.82-.05.15-.58.62-.41,1.01-.4-.06.15-.13.3-.19.45Z"/>
  <path class="cls-5" d="m13.96,69.69v.47c-.15.15-.31.31-.46.46.04-.37-.11-.83.45-.95h.01Z"/>
  <path class="cls-5" d="m13.03,104.78c.17.15.33.3.5.45,0,.07.02.15.05.23-.04.09-.07.2-.11.3-.57-.13-.41-.59-.44-.97Z"/>
  <path class="cls-5" d="m48.39,53.34c-.13.43-.45.44-.81.37.11-.49.44-.46.81-.37Z"/>
  <path class="cls-5" d="m100.59,46.26c-.01-.07-.02-.13-.02-.2.32-.26.57-.26.69.19-.23,0-.45,0-.68.01h.01Z"/>
  <path class="cls-1" d="m82.9,43.52c0,.11,0,.21.01.32-.31.2-.58.19-.79-.15.23-.21.51-.17.77-.17h.01Z"/>
  <path class="cls-1" d="m94.83,108.04c.39-.28.64-.2.72.28-.24,0-.47.02-.72.02v-.31Z"/>
  <path class="cls-5" d="m94.83,108.04v.31c-.26.32-.5.28-.73-.02,0-.09,0-.19.01-.28h.72Z"/>
  <path class="cls-5" d="m99.85,45.98c-.27.12-.52.14-.7-.14.31-.28.55-.25.7.14Z"/>
  <path class="cls-5" d="m30.96,54.41h-.77c.26-.57.52-.57.77,0Z"/>
  <path class="cls-1" d="m41.41,48.24c.17.01.33.02.5.04-.07.46-.39.5-.76.43,0-.2.07-.37.26-.47h0Z"/>
  <path class="cls-5" d="m98.39,45.86c-.26.14-.51.13-.71-.12.32-.47.56-.45.71.12Z"/>
  <path class="cls-5" d="m79.1,120.05v.27c-.07.36-.2.51-.49.14.02-.13.04-.26.06-.39.14-.01.28-.02.41-.04h.01Z"/>
  <path class="cls-1" d="m13.5,70.64c.15-.15.31-.31.46-.46,0,0,.07.06.06.06-.07.36.11.85-.5.94-.04-.09-.07-.18-.11-.27.02-.08.05-.17.07-.25h.01Z"/>
  <path class="cls-5" d="m11.3,76.6c.05.27.15.56-.17.76-.37-.34-.26-.58.17-.76Z"/>
  <path class="cls-5" d="m10.89,78.29c.02.27.06.55-.21.73-.4-.38-.28-.62.21-.73Z"/>
  <path class="cls-1" d="m40.21,49.43c-.02-.08-.05-.15-.06-.24.25-.11.49-.21.73-.31.11.59-.27.58-.66.55h-.01Z"/>
  <path class="cls-3" d="m52.2,47.34c0-.08-.02-.17-.02-.25.15.04.31.08.46.12-.08.25-.2.39-.44.13Z"/>
  <path class="cls-5" d="m11.4,99.52c.2.12.23.31.18.51-.32-.08-.57-.19-.18-.51Z"/>
  <path class="cls-5" d="m22.16,115.2c.15.08.3.15.45.24-.06.17-.19.3-.33.18-.09-.07-.07-.27-.11-.41h-.01Z"/>
  <path class="cls-5" d="m47.14,53.72v.3c-.15,0-.32,0-.47-.01v-.31c.17-.2.33-.21.47.02Z"/>
  <path class="cls-5" d="m34.96,54.19h-.47c.02-.3.18-.46.49-.45,0,.15,0,.31-.01.46h0Z"/>
  <path class="cls-5" d="m8.51,110.73h-.28c-.3-.34-.04-.43.24-.5.01.17.04.34.05.51h0Z"/>
  <path class="cls-5" d="m12.06,73.99c.04.21,0,.4-.2.51-.37-.34-.09-.44.2-.51Z"/>
  <path class="cls-1" d="m46.66,53.69v.31c-.11.19-.28.21-.47.21,0-.17,0-.33.02-.5.15,0,.3-.01.45-.02Z"/>
  <path class="cls-5" d="m111.57,48.87c-.24.08-.43.04-.51-.23.31-.24.41-.02.51.23Z"/>
  <path class="cls-1" d="m78.67,120.09c-.02.13-.04.26-.06.39-.15.02-.32.05-.47.08v-.27c.12-.24.31-.25.53-.19h0Z"/>
  <path class="cls-5" d="m73.37,121.71c.11-.23.3-.24.51-.18-.09.27-.19.52-.51.18Z"/>
  <path class="cls-5" d="m71.94,121.95c.12-.24.31-.24.52-.17-.11.26-.23.51-.52.17Z"/>
  <path class="cls-5" d="m120.12,58.52c-.23-.09-.26-.27-.24-.49.31.05.59.12.24.49Z"/>
  <path class="cls-5" d="m53.11,46.83c0,.08,0,.17.01.25-.17,0-.32-.01-.49-.02.02-.36.12-.56.47-.23Z"/>
  <path class="cls-1" d="m116.03,97.16c.09,0,.18,0,.27-.01-.08.08-.17.17-.24.25l-.07-.07s.04-.11.05-.17h-.01Z"/>
  <path class="cls-5" d="m33.77,54.93c.01.08.02.18.05.27-.09-.01-.18-.02-.27-.04l.23-.23h0Z"/>
  <path class="cls-3" d="m114.13,50.09c.15.47.52.58.95.57.17.15.33.31.5.47,0,.31.17.46.47.47.15.17.32.32.47.49.14.87.55,1.54,1.37,1.92,0,.09.02.19.02.28-1.03.17-2.26-.59-2.52-1.74-.14-.64-.47-.91-.98-1.2-2.19-1.18-4.57-1.77-7-2.23-.58-.12-.76.11-1.01.51-.79,1.29-1.88,2.17-3.4,2.54-2.65.64-5.3,1.35-7.96,2-.49.12-1.02.05-1.54.05-.95,0-1.9-.08-2.74.49-.14,0-.28,0-.44-.01-.04-.14-.06-.3-.09-.44.52-.39.05-.53-.18-.75,0-.08.01-.17.02-.24,1.66,0,3.33-.08,4.98.02.85.06,1.36-.52,2.07-.71,2.05-.52,4.08-1.15,6.13-1.67,1.67-.41,2.6-1.4,2.74-3.12.87.24,1.73.55,2.65.45.63.18,1.26.36,1.88.53.37.73,1.04.66,1.69.64.69.05,1.14.71,1.86.66h.05Z"/>
  <path class="cls-3" d="m72.92,89.77c-.24-.82.2-1.59.75-1.84,1.78-.78,3.57-1.67,5.63-1.53.96.06,1.66.58,2.25,1.18,2.69,2.74,3.41,6.04,2.54,9.71-.25,1.05-.78,2.03-.75,3.19.02.75-.95.85-1.4,1.33-1.09,1.15-2.37,1.8-4.02,1.54-1.54-.24-2.77-.85-3.91-2.04-1.01-1.03-1.36-2.35-2.18-3.42-.24-.31-.58-.62-.08-1,.62.01.47.81.97.95.04.07.07.14.12.21.06.98.41,1.75,1.49,1.99.52.94,1.21,1.69,2.31,1.94.07.46.32.68.81.65.71-.04,1.42-.02,2.12-.04.3,0,.59,0,.34-.44v-.21c.76-.25,1.27-.77,1.62-1.46,1.13-.59,1.59-1.43,1.32-2.41.02-.15.05-.31.07-.47.33-.04.59-.11.23-.47.02-.31.05-.62.07-.92.28-.08.55-.18.19-.51,0-.24.01-.46.02-.7.73-.82.62-2.3-.24-3.14-.08-.96-1.14-1.41-1.23-2.37.02-.68-.26-1.09-.95-1.2l-.47-.47c-.89-1.05-3.6-1.04-4.75.02-.89.52-2.1.64-2.36,1.92-.17,0-.32-.02-.49-.02l-.02.02Z"/>
  <path class="cls-3" d="m24.95,92.85c.3.2.24.45.13.72-.65,1.68-1.29,3.37-2.57,4.7-.13.14-.26.33-.44.39-1.61.6-3.19,1.45-4.86,1.71-1.39.23-2.45-.95-3.47-1.91-1-.92-1.18-1.87-.45-3.01.56,1.66,1.54,2.89,3.29,3.38.91.81,2.82.55,3.6-.51.28-.2.7-.25.75-.7.43-.13.65-.46.88-.81.43-.04.51-.31.47-.66.07-.01.13-.04.2-.05.44.12.46-.24.64-.49.64-.9.84-2.1,1.81-2.77h.01Z"/>
  <path class="cls-3" d="m46.44,96.15c-.85.28-1.36-.06-1.69-.85-.23-.56-.37-.7-1.16-.36-1.77.76-3.52,1.75-5.56,1.72-.69,0-2.44-1.47-2.56-2.14-.33-1.94.72-4.04,2.17-4.28,0,.47-.58.7-.49,1.2,0,.07-.01.13-.02.2-.47,0-.68.3-.79.69-.26.09-.51.19-.2.51-.08,1.26.05,2.39,1.48,2.87.07.04.14.07.21.09.77.78,1.39.37,1.96-.27.37-.09.51-.36.56-.7.63-.3,1.03-.87,1.55-1.29.81.14,1.02-.81,1.68-.91.32.34.41.07.51-.19.14,0,.27,0,.41-.01.52.7.12,1.78.98,2.33h.24c.04.12.07.24.11.36-.25.62.36.72.6,1.03h.01Z"/>
  <path class="cls-3" d="m54.29,54.69c3.34.32,6.68.17,10.03.26,2.5.07,4.92-.44,7.37-.7-.49,1.45-1.92,1.29-2.88,1.33-4.4.15-8.79.07-13.19.06-.63,0-1.13-.31-1.33-.95Z"/>
  <path class="cls-3" d="m86.25,64c-.33.9-.84.3-1.18.07-1.11-.73-1.47-2.64-1.02-4.36.28-1.08.73-2.17.33-3.35-.24-.7-.45-.75-1.08-.32-1.24.84-2.42,1.65-3.08,3.12-.23.5-1.05.92-1.85.63.66-.56,1.67-.87,1.47-2.05.06-.15.11-.31.15-.46.5.06.52-.31.57-.64.46-.04.85-.17.94-.7.59-.51,1.42-.43,2.06-.83,1.2-.19,1.47.94,2.14,1.52.04.24.08.49.12.72l-.08-.04c-1.01.9-1.29,2.05-1.18,3.34-.05,1.14-.14,2.3,1.22,2.84-.02.33.17.47.46.5h.01Z"/>
  <path class="cls-1" d="m121.19,85.03c-.91-.62-1.54-1.46-2.04-2.43,0-.63.01-1.27.02-1.9.59-.11.53-.68.77-1.04.4-.64.5-1.65,1.61-1.59.36.31.23.73.21,1.11-.08,1.96-.18,3.92-.57,5.84h-.01Z"/>
  <path class="cls-3" d="m72.16,54.19c1.17-.38,2.33-.87,3.53-1.09,1.07-.2,1.77-1.2,2.89-1.15-.75.88-1.93,1.33-2.39,2.48-.2.02-.33.12-.47.28-.88,1.07-.77,2.32-.73,3.57-.06.15-.12.32-.18.47-.47-.02-.71-.28-.72-.76,0-.2.04-.4,0-.59-.19-.83.41-1.62.12-2.44-.37-1.02-1.52-.09-2.04-.78h0Z"/>
  <path class="cls-3" d="m11.41,98.08c-.12-.55-.34-1.08-.24-1.66-.18-1.56-.34-3.13-.55-4.69-.01-.12-.2-.21-.3-.31-.24-2.7-.14-5.4.09-8.11h.47c0,1.39.12,2.78-.01,4.16-.28,2.93.66,5.71.76,8.59.01.4.3.72.51,1.05.24.4.39.83-.3.98-.15,0-.3,0-.45-.01h0Z"/>
  <path class="cls-3" d="m90.79,55.18c1.13.73,1.08,1.91.83,2.93-.34,1.43-.73,2.88-1.09,4.31-.18.73-1.81,2.24-2.51,2.28-.53.02-1.04-.11-1.05-.82.31-.05.62-.09.92-.15.37.05.71.07.75-.44.15-.17.3-.33.45-.5.81-.11.41-.75.51-1.16.26-.28.24-.63.2-.98l.07.05c.97-.95.83-2.18.9-3.37-.02-.62-.04-1.23-.06-1.85.02-.09.05-.2.08-.3h0Z"/>
  <path class="cls-3" d="m13.54,71.16c.6-.08.43-.58.5-.94.9-1.42,2.03-2.71,2.56-4.35.19-.23.39-.45.58-.68.83.82.32,1.5-.23,2.16-.97,1.17-2.18,2.23-2.44,3.8-.3,1.77-1.46,3.09-2.06,4.7-.05.13-.24.2-.36.3-.05-.6.04-1.18.4-1.69.45-.64.62-1.36.56-2.13.17-.39.33-.78.5-1.17h-.01Z"/>
  <path class="cls-3" d="m56.44,88.04c.46-.81,1.08-.53,1.58-.13.59.49,1.3,1.14,1.49,1.72.7,2.22,1.84,4.35,1.72,6.79-.02.49-.15.76-.68.73-.05-1.05-.21-2.1-.51-3.1.34-.37.08-.44-.23-.49l-.07.04c0-.46,0-.94-.01-1.4.09-.34-.06-.51-.39-.55-.02-.21-.06-.43-.08-.65.09-.33-.05-.5-.38-.56-.2-.57-.53-1.05-.95-1.48-.07-.3-.25-.43-.56-.37-.06,0-.13-.04-.18-.06-.04-.34-.23-.45-.55-.39-.07-.01-.14-.05-.19-.11h-.02Z"/>
  <path class="cls-3" d="m120.69,62.1c.02.32.05.64.07.96-.23.53-.45,1.05.21,1.45.02.46.04.94.06,1.4h-.24c-.57-.04-.66-.41-.72-.9-.2-1.73-.88-3.39-.88-5.17,0-1.39-.85-2.52-1.29-3.79-.15-.43-.51-.91.26-1.13.04.06.07.13.09.19.5,1.47,1.02,2.94,1.48,4.41.27.87.2,1.86.94,2.56v.02Z"/>
  <path class="cls-3" d="m32.11,119.33c-.4-.87-1.18-.7-1.91-.71h0v-.47c1.02-.36,1.88-.55,2.84.43,1.15,1.17,2.82,1.48,4.4,1.34,1.36-.12,2.18.49,3.03,1.29-.91-.2-1.81-.4-2.73-.62-.31-.07-.62-.17-.87.13-.62.11-1.13-.18-1.67-.4-1.01-.4-2.07-.66-3.12-.98h.01Z"/>
  <path class="cls-3" d="m37.85,90.23c.07-.98.64-1.55,1.55-1.85,1.34-.44,2.24-1.74,3.74-1.88,1.17-.11,2.35-.23,3.5.17.44.14.82.33.76.89-.08.02-.18.04-.26.06-.07,0-.14-.02-.21-.04-.05-.26-.19-.44-.47-.44-1.33.04-2.68-.19-3.99.2-.28.08-.53.14-.56.5-.14.02-.28.04-.43.06-.3-.02-.68-.13-.53.41-.08.15-.17.31-.25.46-.28.09-.58.2-.87.3-.36-.07-.55.07-.53.44-.12.46-.51.62-.9.75-.18-.01-.36-.04-.53-.05v.02Z"/>
  <path class="cls-3" d="m13.58,86.42c-.66-.82-.2-1.68.19-2.29,2.03-3.12,4.74-3.27,8.07-2.03.41.15.75.46.72.98-.39-.08-.79-.17-1.18-.25-.17-.25-.45-.23-.7-.26-.82-.88-2.58-1-3.35-.23-.08.08-.15.18-.24.26-.15.02-.3.05-.45.07-1.23-.06-1.85.69-2.14,1.74-.2.72-.47,1.39-.92,1.99h.01Z"/>
  <path class="cls-3" d="m13.58,105.45c-.02-.07-.05-.14-.05-.23-.06-.63.07-1.33-.7-1.66-.05-.59-.12-1.18-.47-1.71.15-1.15-.34-2.2-.49-3.31.87.18.95.87.94,1.55-.02,1.52.57,2.76,1.35,4.05.56.91,1.43,1.94.79,3.22-.66-.5-.65-1.48-1.36-1.94h-.01Z"/>
  <path class="cls-5" d="m20.95,97.63c-.05.45-.46.5-.75.7-1.15.52-2.38.5-3.6.51-1.75-.49-2.74-1.72-3.29-3.38,0-.15-.02-.31-.02-.46.07-.33.13-.68.2-1.01.65.08.5.59.52,1.01.09,1.92,1.52,3.27,3.41,3.34,1.24.05,2.31-.69,3.53-.7h0Z"/>
  <path class="cls-3" d="m120.33,87.56c-2.56.7-4.02,2.69-5.47,4.69-.32.44-.06,1.28-.92,1.34-.2-1.03.24-1.84.95-2.54,1.01-1.01,2.09-1.96,3-3.03.76-.89,1.5-.98,2.45-.45h0Z"/>
  <path class="cls-3" d="m113.14,100.88c-.21.11-.44.21-.65.32-.27.04-.62.21-.79.11-2.46-1.49-4.76-1.2-6.98.53-.08.06-.23.05-.34.07.5-1.56,1.81-1.84,3.16-1.88,1.87-.07,3.77-.2,5.55.66.04.06.06.12.06.19Z"/>
  <path class="cls-5" d="m89.07,62.78c-.15.17-.3.33-.45.5-.34-.01-.58.14-.75.44-.31.05-.62.09-.92.15-.24-.05-.47-.08-.71-.13-.09-.19-.27-.23-.46-.23-1.35-.55-1.27-1.69-1.22-2.84.5-.58.28-1.58,1.11-1.98.08.79-.2,1.53-.37,2.29-.19.91.12,1.62.89,2.11.7.45,1.36.08,1.98-.24.31-.15.49-.52.88-.55,0,.15,0,.32.01.47h.01Z"/>
  <path class="cls-1" d="m24.95,92.85c-.97.69-1.17,1.87-1.81,2.77-.18.25-.2.6-.64.49.3-.75.59-1.49.89-2.24.26-.08.4-.26.39-.55.02-.14.05-.27.07-.41.62-.4.56-1.05.64-1.68.17-1.32-.33-2.58-.23-3.89.14.01.3.02.44.04.49,1.8.17,3.64.24,5.45v.02Z"/>
  <path class="cls-5" d="m56.71,98.78c-.17-.14-.34-.3-.51-.44-.58-1.4-.95-2.83-1.11-4.34.7.21.82.78.88,1.4.24,2.63,1.5,3.35,3.79,2.18l.06.06c-.09.3-.19.6-.3.9-.08.07-.17.15-.25.23h-2.56Z"/>
  <path class="cls-3" d="m116.03,97.16s-.02.11-.05.17c-.84.58-1.4,1.45-2.06,2.19-.24.26-.4.57-.75.72.04-1.13.78-2.04.95-3.14.07-.46.3-.9.25-1.39.75,0,.94,1,1.71.96-.02.17-.04.33-.06.49h.01Z"/>
  <path class="cls-1" d="m72.7,97.84c-.5-.14-.36-.92-.97-.95,0-.15-.02-.31-.04-.46,0-1.85,0-3.69,1.22-5.25h.26c-.26,1.58-.94,3.09-.72,4.74-.04.36-.19.73.21.98,0,.31.01.62.02.92h.01Z"/>
  <path class="cls-3" d="m91.86,109.53c-.07,1.32.45,2.51.65,3.78-.02.09-.05.19-.07.28-1.45-.44-1.22-1.87-1.59-2.89-.15-.44.27-1.13,1.02-1.18h-.01Z"/>
  <path class="cls-5" d="m13.58,86.42c.45-.6.72-1.27.92-1.99.3-1.05.91-1.8,2.14-1.74-1.2.75-1.67,1.87-2.03,3.2-.17.65-.31,1.54-1.05,1.98-.08-.09-.18-.18-.26-.27.08-.39.18-.78.26-1.18h.01Z"/>
  <path class="cls-3" d="m13.48,94c-.07.33-.13.66-.2,1.01-.83-.27-.6-1.1-.64-1.6-.14-1.65-.06-3.32-.06-4.98,0-.32.12-.53.46-.58,0,1.21-.01,2.42.02,3.63.01.47-.25,1.03.31,1.39.04.38.08.77.12,1.15h-.01Z"/>
  <path class="cls-1" d="m55.08,94.01c.17,1.49.55,2.94,1.11,4.34-.94-.6-1.26-1.55-1.42-2.58-.18-1.05-.23-2.18-1.43-2.68.81-.7,1.07.47,1.67.49.02.14.05.3.07.44Z"/>
  <path class="cls-3" d="m10.9,82.36c.28-1.93.26-3.93,1.17-5.74.23.15.26.38.25.63-.05,1.73-.85,3.31-1.11,4.99,0,.06-.21.08-.32.12h.01Z"/>
  <path class="cls-1" d="m47.13,87.62c.08-.02.18-.04.26-.06.31.09.63.2.94.3.97,1.26,1.92.31,2.87-.02.18.02.34.05.52.07-.09.21-.2.41-.3.63-1.53.78-2.99.96-4.28-.44,0-.15,0-.31-.01-.46h0Z"/>
  <path class="cls-3" d="m72.92,91.18c-1.21,1.56-1.21,3.41-1.22,5.25-.45-1.66-.3-3.33-.09-5,.06-.5.44-.94,1.05-.96.08.08.18.15.26.24v.47Z"/>
  <path class="cls-3" d="m78.15,59.82c-.19,1.07-1.14.98-1.84,1.04-.87.07-1.14-.68-1.26-1.42.26-.02.53-.05.79-.07.63.39,1.32.4,2.01.27.09.06.18.11.27.17h.01Z"/>
  <path class="cls-5" d="m51.43,88.53c.09-.21.2-.41.3-.63,1.56.2,3.14.11,4.72.13.06.05.12.08.19.09.02.15.04.3.06.45-.34.33-.73.2-1.11.12-1.05-.24-2.12-.24-3.18-.02-.36.07-.7.21-.97-.15h0Z"/>
  <path class="cls-1" d="m52.9,93.14c-1.28,1.02-2.56,2.05-3.84,3.07-.17-.01-.33-.04-.5-.05.15-.24.31-.49.45-.72.24-.17.47-.33.72-.5.38-.05.5-.31.53-.64.23-.18.45-.36.66-.53.53-.05,1-.2,1.21-.75.15,0,.31.01.46.02,0,0,.3.09.3.09Z"/>
  <path class="cls-1" d="m13.37,92.85c-.56-.36-.3-.92-.31-1.39-.05-1.21-.02-2.42-.02-3.63.09-.08.19-.15.28-.24.08.09.18.18.26.27-.2,1.65.2,3.33-.21,4.97h0Z"/>
  <path class="cls-5" d="m60.03,94.04c.31,1.02.46,2.05.51,3.1-.02.07-.05.14-.07.21-.23.09-.44.19-.66.28l-.06-.06v-3.55h.28Z"/>
  <path class="cls-3" d="m22.57,83.31c1.33.51,1.59,1.65,1.67,2.87-.13,0-.26,0-.39.01-.12-.25-.24-.5-.36-.73.49-.63-.09-.6-.45-.72-.13-.04-.26-.07-.4-.11-.06-.25-.13-.49-.19-.73.04-.2.07-.39.11-.59h.01Z"/>
  <path class="cls-3" d="m51.2,87.83c-.96.33-1.91,1.28-2.87.02.95-.41,1.91-.38,2.87-.02Z"/>
  <path class="cls-3" d="m92.46,114.52c.55.12.45.56.45.92v2.68c-.57-.08-.47-.53-.47-.91,0-.9,0-1.8.01-2.7h.01Z"/>
  <path class="cls-5" d="m52.9,93.14c-.09-.04-.2-.07-.3-.09.23-.91.95-.76,1.52-.59.45.14,1.27.21.89,1.11-.6,0-.87-1.18-1.67-.49-.14.02-.3.04-.44.06Z"/>
  <path class="cls-5" d="m78.15,59.82c-.09-.06-.18-.11-.27-.17.65-.63,1.3-1.27,1.97-1.9.21,1.18-.81,1.48-1.47,2.05-.08,0-.15.01-.24.02h.01Z"/>
  <path class="cls-3" d="m104.37,101.92c-.06.95-.73,1.43-1.41,1.92.04-.96.43-1.66,1.41-1.92Z"/>
  <path class="cls-1" d="m56.71,98.78h2.56c-.57.72-1.96.73-2.56,0Z"/>
  <path class="cls-3" d="m48.56,96.16c.17.01.33.04.5.05-.7.72-1.42.71-2.16.04,0,0,0-.11,0-.09.55,0,1.09,0,1.64.01h.02Z"/>
  <path class="cls-1" d="m37.85,90.23c.18.01.36.04.53.05-.21.6-.58,1.03-1.23,1.17-.09-.51.5-.73.49-1.2.07,0,.14,0,.21-.01h0Z"/>
  <path class="cls-1" d="m22.57,83.31c-.04.2-.07.39-.11.59-.27-.12-.56-.24-.83-.36-.08-.24-.18-.46-.26-.7.39.08.79.17,1.18.25v.21h.01Z"/>
  <path class="cls-1" d="m75.86,59.37c-.27.02-.53.05-.79.07-.01-.25.01-.52-.25-.69.06-.15.12-.32.18-.47.28.11.38.51.73.51.05.2.08.39.13.59h0Z"/>
  <path class="cls-1" d="m59.81,97.65c.23-.09.44-.19.66-.28.04.68-.23,1.13-.96,1.18.09-.3.19-.6.28-.9h.01Z"/>
  <path class="cls-1" d="m46.44,96.15c-.26-.31-.85-.43-.6-1.03.13.02.27.06.4.08.02.46.7.45.69.95v.11c-.15-.04-.32-.06-.47-.09h-.01Z"/>
  <path class="cls-1" d="m72.93,90.71c-.08-.08-.18-.15-.26-.24.08-.24.17-.47.25-.71.17,0,.32.02.49.02,0,.24,0,.46-.01.7-.02.06-.04.13-.04.19-.14,0-.28.01-.43.02h0Z"/>
  <path class="cls-1" d="m29.26,118.21c-.55.2-.94-.01-1.26-.45.41.05.84.11,1.26.15v.31h0Z"/>
  <path class="cls-3" d="m24.72,87.4c-.14-.01-.3-.02-.44-.04-.02-.24-.06-.47-.08-.71h.11c.49.06.43.4.41.75Z"/>
  <path class="cls-1" d="m90.79,55.18c-.02.09-.05.2-.07.3-.14-.01-.3-.04-.44-.05.02-.25.05-.49.07-.73.14,0,.28,0,.44.01v.47Z"/>
  <path class="cls-3" d="m51.95,53.9c.25.04.53.01.71.26-.09.18-.23.31-.44.26-.3-.06-.28-.3-.27-.52Z"/>
  <path class="cls-1" d="m86.7,118.62c-.26,0-.53.02-.7-.25.4-.39.63-.31.7.25Z"/>
  <path class="cls-1" d="m30.2,118.15v.47c-.27,0-.45-.13-.53-.38.18-.02.36-.06.53-.08h0Z"/>
  <path class="cls-3" d="m53.11,54.2c.33-.04.52.14.6.44-.36.06-.59-.04-.6-.44Z"/>
  <path class="cls-1" d="m85.79,63.51c.19,0,.37.04.46.23v.27c-.3-.04-.49-.17-.46-.5Z"/>
  <path class="cls-1" d="m23.86,86.2c.13,0,.26,0,.39-.01.01.15.04.31.05.46h-.11c-.17-.11-.38-.18-.33-.45Z"/>
  <path class="cls-6" d="m90.34,54.69c-.02.25-.05.49-.07.73-.33.65-.34,1.28.04,1.92-.01.14-.02.3-.04.44-.31.09-.58.19-.17.51-.02.31-.05.62-.07.92-.23.2-.66.34-.2.73,0,.25.02.5.04.73l-.07-.05c-.96.02-.64.72-.65,1.24-.02.14-.06.28-.08.41-.39.01-.58.39-.88.55-.62.32-1.28.69-1.98.24-.77-.49-1.08-1.21-.89-2.11.17-.76.45-1.49.37-2.29.02-.45.06-.91.08-1.36l.08.04c.62-.34.59-.68,0-1.02l-.13-.87c.07-.36-.07-.52-.43-.52-.08-.08-.17-.17-.25-.24-.79-.9-3.38-.13-4.03,1.2-.06.01-.13.04-.19.05-.69-.08-.77.37-.78.89-.01.15-.02.31-.04.46-.05.15-.11.31-.15.46-.65.63-1.32,1.27-1.97,1.9-.7.13-1.39.12-2.01-.28-.05-.2-.08-.39-.13-.59-.24-1.03-.38-2.06.05-3.08.18-.41.58-.76.43-1.28.46-1.15,1.65-1.6,2.39-2.48.27-.13.53-.27.81-.4.13.02.27.05.41.07.2.26.39.15.59,0,.87-.66,1.91-.83,2.92-1.15.5-.15,1.11.2,1.52-.36,2.31-.21,3.72,1.08,4.8,2.9,0,.17-.02.34-.04.51-.5.62-.07.7.44.73h.24c.04.14.06.3.09.44h-.05Z"/>
  <path class="cls-5" d="m84.82,50.1c-.4.56-1.02.2-1.52.36-1,.32-2.05.49-2.92,1.15-.2.15-.39.27-.59,0,.39-.72,1.27-.69,1.82-1.16,1.07-.09,2.05-.97,3.19-.34h.01Z"/>
  <path class="cls-3" d="m81.63,50.45c-.56.47-1.43.44-1.82,1.16-.14-.02-.27-.05-.41-.07.5-.89,1.26-1.21,2.24-1.1h0Z"/>
  <path class="cls-3" d="m68.21,44.4c.17-.25.38-.15.59-.08-.15.38-.34.39-.59.08Z"/>
  <path class="cls-1" d="m89.6,53.5c0-.17.02-.34.02-.51.2,0,.4.01.47.26,0,.08-.01.17-.02.24l-.07.06c-.14-.02-.27-.04-.41-.06h.01Z"/>
  <path class="cls-1" d="m104.88,47.11c.08-.02.15.01.19.09-.12.08-.17.01-.19-.09Z"/>
  <path class="cls-1" d="m105.42,47.28c.06-.01.11,0,.14.05-.05.05-.08.11-.13.15,0-.07-.01-.13-.02-.2h.01Z"/>
  <path class="cls-1" d="m37.85,51.08c.15-.07.3-.15.45-.23-.04.31-.04.68-.45.23Z"/>
  <path class="cls-1" d="m120.84,86.44c-.04-.27.06-.45.32-.55.15.33-.01.49-.32.55Z"/>
  <path class="cls-4" d="m8.76,111.68c0-.32.02-.63.02-.95.64-.26,1.04-.11,1.46.51.57.88.89,1.93,1.86,2.54.36.23.3.63-.07.89-.24.17-.64.14-.65.58-.32.05-.69-.08-.96.2-.08,0-.15-.02-.21-.08-.02-.24-.06-.56-.34-.53-1.52.14-1.24-.76-1.13-1.72.06-.45.57-.95.02-1.42h0Z"/>
  <path class="cls-1" d="m116.04,51.61c-.31-.01-.46-.18-.47-.47.15,0,.31.01.45.02,0,.15,0,.31.01.46h.01Z"/>
  <path class="cls-1" d="m90.26,54.24l-.12.02h-.12c0-.23-.01-.46-.02-.69l.07-.06c.23.2.7.36.18.75v-.02Z"/>
  <path class="cls-6" d="m73.36,90.68c0-.07.02-.13.04-.19.24-.02.51-.09.58-.33.24-.84.82-1.28,1.61-1.52.24-.07.39-.24.41-.51,1.08-.3,2.14-.7,3.31-.5.3.72.97.82,1.61.96.18.23.37.46.55.69-.06.63.2,1.14.55,1.64.64.92.92,1.94.94,3.1.01,1.05-.68,2.06-.12,3.12.02.15.05.31.07.47-.02.15-.05.31-.07.47-.33.87-1.18,1.43-1.32,2.41-.37.69-.88,1.21-1.62,1.46-1.09-.07-2.18-.09-3.27.02-1.1-.25-1.78-1.01-2.31-1.94-.27-.83-.73-1.52-1.49-1.99-.04-.07-.07-.14-.12-.21,0-.31-.01-.62-.02-.92.32-.41.37-.77-.21-.98-.21-1.65.45-3.16.72-4.74.19-.12.2-.3.18-.5Z"/>
  <path class="cls-5" d="m82.83,97.15c-.55-1.05.14-2.07.12-3.12-.02-1.16-.3-2.18-.94-3.1-.34-.51-.6-1.02-.55-1.64.17.08.32.15.49.24.09.95,1.15,1.41,1.23,2.37.32,1.03.17,2.1.24,3.14,0,.24-.01.46-.02.7-.21.11-.25.3-.19.51-.02.31-.05.62-.07.92h-.3v-.02Z"/>
  <path class="cls-1" d="m79.31,87.63c-1.16-.2-2.23.2-3.31.5-.08-.09-.15-.18-.24-.27,1.15-1.05,3.86-1.07,4.75-.02-.41,0-.77-.34-1.22-.21h.01Z"/>
  <path class="cls-5" d="m75.77,87.87c.08.09.15.18.24.27-.02.27-.18.44-.41.51-.79.24-1.37.68-1.61,1.52-.07.24-.33.3-.58.33,0-.24,0-.46.01-.7.26-1.28,1.47-1.41,2.36-1.92h0Z"/>
  <path class="cls-5" d="m76.61,101.98c1.09-.13,2.18-.09,3.27-.02,0,.07.01.14,0,.21-.26.04-.31.23-.34.44-.71,0-1.42,0-2.12.04-.49.02-.73-.19-.81-.65h0Z"/>
  <path class="cls-1" d="m83.42,95.01c-.08-1.04.08-2.11-.24-3.14.87.84.97,2.31.24,3.14Z"/>
  <path class="cls-5" d="m72.82,98.05c.76.46,1.22,1.15,1.49,1.99-1.08-.23-1.42-1-1.49-1.99Z"/>
  <path class="cls-1" d="m81.51,100.49c.13-.97.98-1.54,1.32-2.41.27.97-.19,1.81-1.32,2.41Z"/>
  <path class="cls-5" d="m79.31,87.63c.44-.13.79.21,1.22.21l.47.47c-.02.09-.06.18-.08.27-.64-.14-1.32-.24-1.61-.96Z"/>
  <path class="cls-1" d="m80.92,88.59c.02-.09.06-.18.08-.27.69.11.97.52.95,1.2-.17-.08-.32-.15-.49-.24-.18-.23-.37-.46-.55-.69Z"/>
  <path class="cls-1" d="m82.83,97.15h.3c.37.37.09.44-.23.47-.02-.15-.05-.31-.07-.47Z"/>
  <path class="cls-1" d="m79.55,102.6c.04-.21.09-.4.34-.44.25.44-.05.44-.34.44Z"/>
  <path class="cls-1" d="m83.2,96.21c-.06-.21-.02-.39.19-.51.36.33.09.43-.19.51Z"/>
  <path class="cls-6" d="m21.65,83.54c.27.12.56.24.83.36.06.25.13.5.19.73-.08.27-.13.57.07.79.79.95.91,2.09,1.11,3.27.25,1.43,0,2.81.01,4.21-.02.14-.05.27-.07.41-.36.01-.52.18-.39.55-.3.75-.59,1.49-.89,2.24-.07.02-.13.04-.2.05-.43.04-.46.34-.47.66-.23.34-.46.68-.88.81-1.22.02-2.29.75-3.53.7-1.9-.07-3.32-1.42-3.41-3.34-.02-.41.13-.92-.52-1.01-.04-.38-.08-.77-.12-1.15.41-1.65.01-3.32.21-4.97.75-.45.88-1.33,1.05-1.98.34-1.34.83-2.46,2.03-3.2.15-.02.3-.05.45-.07.19.26.47.24.75.23,1.33-.08,2.62-.04,3.79.7h-.01Z"/>
  <path class="cls-1" d="m16.61,98.84c1.22-.01,2.45.01,3.6-.51-.78,1.04-2.69,1.32-3.6.51Z"/>
  <path class="cls-5" d="m21.83,96.83c0-.33.06-.63.47-.66.04.36-.05.64-.47.66Z"/>
  <path class="cls-6" d="m46.23,95.2c-.13-.02-.27-.06-.4-.08-.04-.12-.07-.24-.11-.36.38-.36.07-.43-.21-.51l-.02-1.41c-.02-.33.11-.72-.34-.91-1.05-.45-2.83.43-3.26,1.61-.52.43-.91,1.01-1.55,1.29-.52-.13-.76.14-.84.62-.56.09-1.2-.13-1.67.37-.07-.02-.14-.06-.21-.09.05-.39-.19-.64-.43-.91-.62-.72-.79-1.52-.24-2.37.17-.25.2-.51.18-.78,0-.07.01-.13.02-.2.65-.14,1.02-.57,1.23-1.17.39-.13.78-.28.9-.75.31,0,.47-.15.53-.44.28-.09.58-.2.87-.3.52.01,1.03-.01,1.21-.64.23-.04.44-.07.66-.11.34.07.68.08.81-.34h3.01c.09.44.41.43.76.4,1.29,1.41,2.76,1.23,4.28.44.27.37.62.23.97.15,1.05-.21,2.12-.21,3.18.02.38.08.77.23,1.11-.12.17-.02.32-.05.49-.06.06.04.12.06.18.06.08.15.18.31.26.46.59,1.05,1.02,2.18,1.39,3.32.15.47.11,1.03.72,1.23l.07-.04c-.02.17-.04.32-.06.49v3.55c-2.29,1.17-3.55.44-3.79-2.18-.06-.62-.18-1.18-.88-1.4-.02-.14-.05-.3-.07-.44.37-.9-.44-.97-.89-1.11-.57-.18-1.29-.33-1.52.59-.15,0-.31-.01-.46-.02-.66-.17-1.04.12-1.21.75-.23.18-.45.36-.66.53-.49-.05-.5.31-.53.64-.24.17-.47.33-.72.5-.95.09-1.87.02-2.78-.24l.05-.05Z"/>
  <path class="cls-5" d="m37.12,91.64c.02.28,0,.53-.18.78-.56.84-.38,1.65.24,2.37.24.27.47.52.43.91-1.43-.47-1.56-1.61-1.48-2.87.24-.11.26-.28.2-.51.12-.39.32-.7.79-.69Z"/>
  <path class="cls-5" d="m41.89,93.53c.41-1.18,2.2-2.06,3.26-1.61.45.19.32.58.34.91-.34-.11-.53-.57-.98-.41-.14,0-.27,0-.41.01-.21-.06-.4-.04-.51.19-.66.11-.89,1.05-1.68.91h-.01Z"/>
  <path class="cls-1" d="m44.5,92.42c.45-.15.64.31.98.41,0,.47.01.95.02,1.41,0,.17-.02.33-.02.5-.87-.56-.46-1.64-.98-2.33h0Z"/>
  <path class="cls-1" d="m37.82,95.81c.47-.5,1.1-.26,1.67-.37.09.04.19.06.28.09-.58.64-1.18,1.04-1.96.27Z"/>
  <path class="cls-5" d="m39.78,95.54c-.09-.04-.19-.06-.28-.09.08-.47.32-.75.84-.62-.04.34-.18.62-.55.7h-.01Z"/>
  <path class="cls-1" d="m36.33,92.34c.07.23.04.4-.2.51-.31-.32-.06-.41.2-.51Z"/>
  <path class="cls-1" d="m43.57,92.63c.11-.24.3-.25.51-.19-.09.27-.18.55-.51.19Z"/>
  <path class="cls-5" d="m45.48,94.75c0-.17.02-.33.02-.5.28.08.59.15.21.51h-.24Z"/>
  <path class="cls-5" d="m81.02,55.91c.64-1.33,3.22-2.09,4.03-1.2-.5.09-1.14-.31-1.46.4-.64.4-1.47.32-2.06.83-.17-.01-.33-.02-.5-.04h-.01Z"/>
  <path class="cls-1" d="m85.76,57.32c-.02.46-.05.91-.08,1.36-.83.4-.62,1.39-1.11,1.98-.09-1.29.18-2.45,1.18-3.34h.01Z"/>
  <path class="cls-1" d="m83.58,55.12c.33-.71.96-.32,1.46-.4.08.08.17.17.25.24,0,.28.15.45.43.52.05.28.08.58.13.87-.04.09-.08.2-.12.3-.66-.57-.94-1.69-2.14-1.52Z"/>
  <path class="cls-1" d="m81.02,55.91c.17.01.33.02.5.04-.08.53-.47.68-.94.7l-.06-.05c.09-.21.2-.44.3-.65.06,0,.13-.02.19-.05h.01Z"/>
  <path class="cls-5" d="m85.72,56.63c.04-.09.08-.2.12-.3.59.33.62.68,0,1.02-.04-.24-.08-.49-.12-.72Z"/>
  <path class="cls-1" d="m80,57.3c.01-.15.02-.31.04-.46.17-.08.32-.15.49-.24l.06.05c-.06.33-.07.7-.57.64h-.01Z"/>
  <path class="cls-5" d="m76.21,54.42c.15.52-.25.87-.43,1.28-.43,1.02-.28,2.05-.05,3.08-.36,0-.45-.4-.73-.51-.04-1.24-.14-2.5.73-3.57.14-.17.27-.26.47-.28Z"/>
  <path class="cls-1" d="m90.27,57.77c.01-.14.02-.3.04-.44.15,0,.31-.01.46-.02-.06,1.18.07,2.43-.9,3.37,0-.25-.02-.5-.04-.73.28-.19.25-.46.2-.73.02-.31.05-.62.07-.92.2-.12.21-.31.17-.51Z"/>
  <path class="cls-5" d="m90.77,57.32c-.15,0-.31.01-.46.02-.38-.63-.37-1.27-.04-1.92.14.01.3.04.44.05.02.62.04,1.23.06,1.85Z"/>
  <path class="cls-5" d="m89.15,61.88c.01-.52-.31-1.22.65-1.24.02.34.05.69-.2.98-.15.08-.3.18-.45.26Z"/>
  <path class="cls-1" d="m89.15,61.88c.15-.08.3-.18.45-.26-.11.41.28,1.05-.51,1.16,0-.15,0-.32-.01-.47.02-.14.06-.28.08-.41h-.01Z"/>
  <path class="cls-1" d="m87.88,63.72c.17-.3.4-.45.75-.44-.04.51-.38.49-.75.44Z"/>
  <path class="cls-5" d="m59.72,93.59c-.62-.19-.57-.76-.72-1.23-.37-1.15-.79-2.26-1.39-3.32.09-.04.19-.06.28-.09.41.44.75.92.95,1.48-.06.31.09.47.38.56.02.21.06.43.08.65-.04.31.11.47.39.55,0,.46,0,.94.01,1.4h.01Z"/>
  <path class="cls-1" d="m57.17,88.52c-.17.02-.32.05-.49.06-.02-.15-.04-.3-.06-.45.32-.07.51.05.55.39Z"/>
  <path class="cls-1" d="m57.91,88.96c-.09.04-.19.06-.28.09-.08-.15-.18-.31-.26-.46.31-.06.49.07.56.37h-.01Z"/>
  <path class="cls-1" d="m59.24,91c-.28-.08-.43-.25-.38-.56.32.05.46.23.38.56Z"/>
  <path class="cls-1" d="m59.71,92.19c-.28-.07-.43-.24-.39-.55.33.04.49.2.39.55Z"/>
  <path class="cls-1" d="m59.75,94.03c.02-.17.04-.32.06-.49.31.05.58.12.23.49h-.28Z"/>
  <path class="cls-1" d="m46.39,87.68h-3.01c-.37-.11-.68-.09-.81.34-.23.04-.44.07-.66.11v-.3c.02-.34.27-.4.56-.5,1.32-.39,2.67-.17,3.99-.2.27,0,.43.18.47.44-.18.04-.36.06-.53.09h-.01Z"/>
  <path class="cls-5" d="m41.9,87.85v.3c-.19.63-.69.65-1.21.64.08-.15.17-.31.25-.46.3.01.46-.13.53-.41.14-.02.28-.04.43-.06Z"/>
  <path class="cls-5" d="m46.39,87.68c.18-.04.36-.06.53-.09.07.01.14.02.21.04,0,.15,0,.31.01.46-.33.02-.66.04-.76-.4Z"/>
  <path class="cls-1" d="m41.47,87.9c-.07.28-.24.43-.53.41-.13-.55.24-.43.53-.41Z"/>
  <path class="cls-1" d="m39.83,89.09c-.06.3-.23.45-.53.44,0-.38.18-.51.53-.44Z"/>
  <path class="cls-5" d="m21.65,83.54c-1.17-.73-2.46-.78-3.79-.7-.27.01-.56.04-.75-.23.08-.08.15-.18.24-.26,1.11.07,2.25-.11,3.35.23.25.05.52.02.7.26.08.24.18.46.26.7h-.01Z"/>
  <path class="cls-1" d="m20.69,82.58c-1.1-.33-2.23-.15-3.35-.23.77-.77,2.52-.65,3.35.23Z"/>
  <path class="cls-5" d="m23.86,92.92c-.02-1.4.23-2.77-.01-4.21-.2-1.18-.32-2.31-1.11-3.27-.19-.23-.15-.52-.07-.79.13.04.27.07.4.11-.01.34.14.58.45.72.12.25.24.5.36.73-.06.27.15.34.33.45.02.24.06.47.08.71-.09,1.3.4,2.57.23,3.89-.08.62-.02,1.27-.64,1.68v-.02Z"/>
  <path class="cls-5" d="m23.4,93.88c-.12-.37.04-.53.39-.55,0,.28-.14.45-.39.55Z"/>
  <path class="cls-5" d="m72.47,95.92c.58.21.53.57.21.98-.41-.25-.25-.63-.21-.98Z"/>
  <path class="cls-5" d="m73.36,90.68c.02.19.01.38-.18.5h-.26v-.47c.14,0,.28-.01.43-.02h.01Z"/>
  <path class="cls-5" d="m46.23,95.2c.91.26,1.84.33,2.78.24-.15.24-.31.49-.45.72-.55,0-1.09,0-1.65-.01,0-.49-.66-.49-.69-.95Z"/>
  <path class="cls-5" d="m50.93,93.77c.17-.63.55-.91,1.21-.75-.21.55-.68.7-1.21.75Z"/>
  <path class="cls-5" d="m49.73,94.94c.04-.33.05-.69.53-.64-.04.33-.17.59-.53.64Z"/>
  <path class="cls-1" d="m23.51,85.46c-.31-.14-.46-.38-.45-.72.34.12.94.08.45.72Z"/>
  <path class="cls-5" d="m90,53.56c0,.23.01.45.02.69-.5-.04-.92-.12-.44-.73.14.02.27.04.41.06h0Z"/>
  <path class="cls-5" d="m80.52,56.6c-.17.08-.32.15-.49.24,0-.52.11-.96.78-.89-.09.21-.2.44-.3.65Z"/>
  <path class="cls-5" d="m90.05,59.22c.05.27.08.55-.2.73-.46-.39-.02-.53.2-.73Z"/>
  <path class="cls-5" d="m85.71,55.47c-.27-.07-.41-.24-.43-.52.36,0,.5.17.43.52Z"/>
  <path class="cls-5" d="m90.27,57.77c.05.2.04.39-.17.51-.41-.32-.14-.43.17-.51Z"/>
  <path class="cls-5" d="m42.56,88.04c.13-.44.45-.45.81-.34-.13.43-.46.41-.81.34Z"/>
</svg>